<svg id="Layer_1" data-name="Layer 1" xmlns="http://www.w3.org/2000/svg" xmlns:xlink="http://www.w3.org/1999/xlink" viewBox="0 0 1200 768"><defs><style>.cls-1{fill:#edf1f5;}.cls-2{fill:url(#linear-gradient);}.cls-3{fill:#fff;}.cls-4{fill:#d6d6d6;}.cls-5,.cls-7{fill:none;}.cls-5{stroke:#fff;stroke-width:2px;}.cls-15,.cls-5,.cls-7,.cls-9{stroke-miterlimit:10;}.cls-6{fill:url(#linear-gradient-2);}.cls-7{stroke:#dfe5ea;}.cls-8,.cls-9{fill:#718ebe;}.cls-9{stroke:#718ebe;stroke-width:0.3px;}.cls-10{fill:#c9c9c9;}.cls-11{fill:#3a5c8c;}.cls-12{fill:#e1e9f3;}.cls-13{fill:#00b6f2;}.cls-14{fill:#00698c;}.cls-15{fill:#00a3d8;stroke:#007da5;}</style><linearGradient id="linear-gradient" x1="-68.4" y1="39.49" x2="329.4" y2="728.51" gradientUnits="userSpaceOnUse"><stop offset="0" stop-color="#24698b"/><stop offset="0.04" stop-color="#256688"/><stop offset="0.35" stop-color="#2b5374"/><stop offset="0.67" stop-color="#2e4869"/><stop offset="1" stop-color="#2f4465"/></linearGradient><linearGradient id="linear-gradient-2" x1="47.25" y1="704.98" x2="65.75" y2="737.02" gradientUnits="userSpaceOnUse"><stop offset="0" stop-color="#6ec3da"/><stop offset="0.29" stop-color="#5db5d7"/><stop offset="0.7" stop-color="#4ba6d4"/><stop offset="1" stop-color="#45a1d3"/></linearGradient></defs><title>formnflow-showcase-3</title><rect class="cls-1" width="1200" height="768"/><rect class="cls-2" width="261" height="768"/><path class="cls-3" d="M43.44,61.2H39.27v-20H50.72v3.47H43.44v5.16h6.78V53.3H43.44Z"/><path class="cls-3" d="M68.2,53.53a8.24,8.24,0,0,1-2,5.84,7.14,7.14,0,0,1-5.48,2.1,7.71,7.71,0,0,1-3.89-1,6.41,6.41,0,0,1-2.58-2.77,9.32,9.32,0,0,1-.9-4.21,8.16,8.16,0,0,1,1.95-5.82,7.17,7.17,0,0,1,5.5-2.08,7.8,7.8,0,0,1,3.88.95,6.41,6.41,0,0,1,2.58,2.75A9.15,9.15,0,0,1,68.2,53.53Zm-10.57,0A6.47,6.47,0,0,0,58.37,57a2.66,2.66,0,0,0,2.43,1.16A2.63,2.63,0,0,0,63.2,57a6.5,6.5,0,0,0,.73-3.44,6.31,6.31,0,0,0-.74-3.4,3.13,3.13,0,0,0-4.82,0A6.23,6.23,0,0,0,57.63,53.53Z"/><path class="cls-3" d="M80.17,45.63a6.85,6.85,0,0,1,1.41.12l-.31,3.91A4.84,4.84,0,0,0,80,49.52a4.44,4.44,0,0,0-3.11,1,3.68,3.68,0,0,0-1.12,2.87V61.2H71.64V45.92H74.8l.62,2.57h.2a5.73,5.73,0,0,1,1.92-2.08A4.76,4.76,0,0,1,80.17,45.63Z"/><path class="cls-3" d="M98,61.2H93.87V52.27a4.49,4.49,0,0,0-.55-2.48A2,2,0,0,0,91.58,49a2.54,2.54,0,0,0-2.33,1.18A7.74,7.74,0,0,0,88.53,54V61.2H84.36V45.92h3.18l.56,1.95h.23a4.37,4.37,0,0,1,1.78-1.65,5.89,5.89,0,0,1,2.67-.59q3.43,0,4.65,2.24h.37a4.1,4.1,0,0,1,1.81-1.65,5.89,5.89,0,0,1,2.7-.59A5.33,5.33,0,0,1,106.24,47a5.84,5.84,0,0,1,1.33,4.27v10h-4.18V52.27a4.48,4.48,0,0,0-.56-2.48,2,2,0,0,0-1.74-.83,2.61,2.61,0,0,0-2.29,1.1A6.15,6.15,0,0,0,98,53.53Z"/><path class="cls-3" d="M126,61.2h-4.17V52.27a4.3,4.3,0,0,0-.59-2.48,2.13,2.13,0,0,0-1.87-.83,2.81,2.81,0,0,0-2.53,1.17A7.25,7.25,0,0,0,116,54V61.2h-4.17V45.92H115l.56,1.95h.23a4.28,4.28,0,0,1,1.92-1.67,6.52,6.52,0,0,1,2.78-.57,5.35,5.35,0,0,1,4,1.44A5.79,5.79,0,0,1,126,51.23Z"/><path class="cls-3" d="M138.7,49.05h-3.61V61.2h-4.17V49.05h-2.29V47l2.29-1.12V44.79A5,5,0,0,1,132.21,41a5.88,5.88,0,0,1,4.11-1.2,10.76,10.76,0,0,1,3.85.64l-1.07,3.06a7.92,7.92,0,0,0-2.33-.4,1.5,1.5,0,0,0-1.28.53,2.15,2.15,0,0,0-.4,1.35v1h3.61Zm6.56,12.15h-4.17V39.93h4.17Z"/><path class="cls-3" d="M163.52,53.53a8.24,8.24,0,0,1-2,5.84,7.14,7.14,0,0,1-5.48,2.1,7.71,7.71,0,0,1-3.89-1,6.41,6.41,0,0,1-2.58-2.77,9.32,9.32,0,0,1-.9-4.21,8.16,8.16,0,0,1,2-5.82,7.17,7.17,0,0,1,5.5-2.08,7.8,7.8,0,0,1,3.88.95,6.41,6.41,0,0,1,2.58,2.75A9.15,9.15,0,0,1,163.52,53.53Zm-10.57,0a6.47,6.47,0,0,0,.74,3.43,2.66,2.66,0,0,0,2.43,1.16,2.63,2.63,0,0,0,2.4-1.15,6.5,6.5,0,0,0,.73-3.44,6.31,6.31,0,0,0-.74-3.4,3.13,3.13,0,0,0-4.82,0A6.23,6.23,0,0,0,153,53.53Z"/><path class="cls-3" d="M179.53,61.2l-1.18-5.35-1.59-6.75h-.09l-2.79,12.1H169.4l-4.35-15.28h4.15L171,52.68c.28,1.22.57,2.89.86,5h.08a29.5,29.5,0,0,1,.48-3.29l.22-1.17,1.89-7.32h4.59l1.79,7.32c0,.2.09.5.17.89s.15.81.23,1.25.14.88.19,1.3.1.77.11,1h.08c.08-.66.23-1.56.44-2.7s.36-1.92.45-2.32l1.83-6.76h4.09l-4.4,15.28Z"/><path class="cls-4" d="M38.44,126.49V115.07h2.42v9.42h4.63v2Z"/><path class="cls-4" d="M52.84,126.49l-.46-1.18h-.07a3.57,3.57,0,0,1-1.24,1,4.05,4.05,0,0,1-1.66.29,2.71,2.71,0,0,1-2-.72,2.77,2.77,0,0,1-.72-2.05,2.33,2.33,0,0,1,1-2,5.69,5.69,0,0,1,2.94-.73l1.51,0v-.39a1.19,1.19,0,0,0-1.36-1.33,6.27,6.27,0,0,0-2.46.64l-.79-1.61a7.08,7.08,0,0,1,3.35-.79,4.15,4.15,0,0,1,2.69.76,2.83,2.83,0,0,1,.94,2.33v5.82Zm-.71-4-.92,0a3,3,0,0,0-1.55.37,1.2,1.2,0,0,0-.5,1.05c0,.67.38,1,1.15,1a1.84,1.84,0,0,0,1.33-.48,1.67,1.67,0,0,0,.49-1.26Z"/><path class="cls-4" d="M65,126.49H62.63v-5.1A2.5,2.5,0,0,0,62.3,120a1.24,1.24,0,0,0-1.07-.47,1.61,1.61,0,0,0-1.45.67,4.09,4.09,0,0,0-.44,2.21v4.11H57v-8.73h1.82l.32,1.12h.14a2.48,2.48,0,0,1,1.09-1,3.71,3.71,0,0,1,1.59-.33,3.07,3.07,0,0,1,2.32.83A3.33,3.33,0,0,1,65,120.8Z"/><path class="cls-4" d="M75.07,117.76V119l-1.37.35a2.39,2.39,0,0,1,.38,1.31,2.68,2.68,0,0,1-1,2.2,4.27,4.27,0,0,1-2.72.78l-.43,0-.36,0a.79.79,0,0,0-.36.62c0,.35.43.52,1.31.52H72a3.33,3.33,0,0,1,2.19.62,2.18,2.18,0,0,1,.76,1.81,2.68,2.68,0,0,1-1.28,2.37,6.57,6.57,0,0,1-3.67.85,5.09,5.09,0,0,1-2.79-.64,2,2,0,0,1-1-1.78,1.89,1.89,0,0,1,.49-1.33,2.82,2.82,0,0,1,1.44-.75,1.72,1.72,0,0,1-.64-.51,1.27,1.27,0,0,1,0-1.59,3.28,3.28,0,0,1,.83-.65,2.41,2.41,0,0,1-1.09-1,2.94,2.94,0,0,1-.4-1.54,2.72,2.72,0,0,1,.93-2.21,4,4,0,0,1,2.66-.79,7.92,7.92,0,0,1,.87.07l.64.1Zm-6.74,10a.87.87,0,0,0,.47.77,2.59,2.59,0,0,0,1.32.28,4.59,4.59,0,0,0,2-.35,1.06,1.06,0,0,0,.73-1,.68.68,0,0,0-.43-.68,3.63,3.63,0,0,0-1.33-.19H69.87a1.9,1.9,0,0,0-1.1.31A1,1,0,0,0,68.33,127.73Zm.87-7.11a1.74,1.74,0,0,0,.32,1.12,1.17,1.17,0,0,0,1,.42,1.14,1.14,0,0,0,1-.42,1.8,1.8,0,0,0,.31-1.12c0-1.05-.43-1.58-1.29-1.58S69.2,119.57,69.2,120.62Z"/><path class="cls-4" d="M82.7,126.49l-.32-1.11h-.13a2.58,2.58,0,0,1-1.09.94,3.69,3.69,0,0,1-1.6.33,3.05,3.05,0,0,1-2.32-.82,3.33,3.33,0,0,1-.78-2.38v-5.69h2.38v5.1a2.5,2.5,0,0,0,.34,1.42,1.23,1.23,0,0,0,1.07.47,1.61,1.61,0,0,0,1.45-.67,4.19,4.19,0,0,0,.44-2.21v-4.11h2.38v8.73Z"/><path class="cls-4" d="M92.57,126.49l-.46-1.18h-.06a3.66,3.66,0,0,1-1.24,1,4.12,4.12,0,0,1-1.66.29,2.68,2.68,0,0,1-2-.72,2.77,2.77,0,0,1-.72-2.05,2.31,2.31,0,0,1,1-2,5.65,5.65,0,0,1,2.93-.73l1.52,0v-.39a1.19,1.19,0,0,0-1.36-1.33,6.23,6.23,0,0,0-2.46.64l-.79-1.61a7,7,0,0,1,3.34-.79,4.19,4.19,0,0,1,2.7.76,2.86,2.86,0,0,1,.93,2.33v5.82Zm-.7-4-.92,0a2.94,2.94,0,0,0-1.55.37,1.18,1.18,0,0,0-.51,1.05c0,.67.39,1,1.16,1a1.82,1.82,0,0,0,1.32-.48,1.68,1.68,0,0,0,.5-1.26Z"/><path class="cls-4" d="M104.29,117.76V119l-1.37.35a2.39,2.39,0,0,1,.38,1.31,2.68,2.68,0,0,1-1,2.2,4.3,4.3,0,0,1-2.73.78l-.43,0-.35,0a.79.79,0,0,0-.36.62c0,.35.43.52,1.31.52h1.48a3.33,3.33,0,0,1,2.19.62,2.18,2.18,0,0,1,.76,1.81,2.68,2.68,0,0,1-1.28,2.37,6.57,6.57,0,0,1-3.67.85,5.09,5.09,0,0,1-2.79-.64,2,2,0,0,1-1-1.78,1.89,1.89,0,0,1,.5-1.33,2.78,2.78,0,0,1,1.44-.75,1.72,1.72,0,0,1-.64-.51,1.24,1.24,0,0,1-.27-.76,1.19,1.19,0,0,1,.29-.83,3.28,3.28,0,0,1,.83-.65,2.36,2.36,0,0,1-1.09-1,2.85,2.85,0,0,1-.4-1.54,2.72,2.72,0,0,1,.93-2.21,4,4,0,0,1,2.66-.79,7.92,7.92,0,0,1,.87.07l.64.1Zm-6.74,10a.85.85,0,0,0,.47.77,2.57,2.57,0,0,0,1.32.28,4.59,4.59,0,0,0,2-.35,1.06,1.06,0,0,0,.73-1,.69.69,0,0,0-.43-.68,3.63,3.63,0,0,0-1.33-.19H99.09a1.9,1.9,0,0,0-1.1.31A1,1,0,0,0,97.55,127.73Zm.86-7.11a1.74,1.74,0,0,0,.33,1.12,1.37,1.37,0,0,0,2,0,1.8,1.8,0,0,0,.31-1.12c0-1.05-.43-1.58-1.29-1.58S98.41,119.57,98.41,120.62Z"/><path class="cls-4" d="M109.68,126.65a4.53,4.53,0,0,1-3.3-1.16,4.43,4.43,0,0,1-1.18-3.3,4.88,4.88,0,0,1,1.09-3.4,3.92,3.92,0,0,1,3-1.2,3.87,3.87,0,0,1,2.88,1.06,4,4,0,0,1,1,2.91v1.16h-5.63a2.34,2.34,0,0,0,.6,1.59,2.13,2.13,0,0,0,1.58.57,6.54,6.54,0,0,0,1.49-.17,7.43,7.43,0,0,0,1.47-.52V126a5.46,5.46,0,0,1-1.34.47A8.49,8.49,0,0,1,109.68,126.65Zm-.34-7.36a1.49,1.49,0,0,0-1.18.48,2.27,2.27,0,0,0-.5,1.36H111a2,2,0,0,0-.46-1.36A1.57,1.57,0,0,0,109.34,119.29Z"/><rect class="cls-5" x="38" y="138" width="185" height="33" rx="4.05" ry="4.05"/><path class="cls-3" d="M52.47,158.88H47.23V149.6h5.24v1.28H48.74v2.53h3.5v1.27h-3.5v2.91h3.73Z"/><path class="cls-3" d="M60.5,158.88H59v-4.32a1.88,1.88,0,0,0-.33-1.21,1.23,1.23,0,0,0-1-.4,1.66,1.66,0,0,0-1.39.56,3.1,3.1,0,0,0-.44,1.87v3.5H54.32v-7h1.17l.21.92h.08a2.07,2.07,0,0,1,.9-.77,2.9,2.9,0,0,1,1.29-.28,2.25,2.25,0,0,1,2.53,2.57Z"/><path class="cls-3" d="M68.5,151.86v.82l-1.2.22a2.17,2.17,0,0,1,.28.55,2.15,2.15,0,0,1,.1.68,2.1,2.1,0,0,1-.75,1.71,3.13,3.13,0,0,1-2.06.62,3.76,3.76,0,0,1-.61-.05.84.84,0,0,0-.48.7.38.38,0,0,0,.23.36,1.92,1.92,0,0,0,.82.12h1.23a2.71,2.71,0,0,1,1.76.5,1.71,1.71,0,0,1,.61,1.42,2.09,2.09,0,0,1-1,1.85,5.17,5.17,0,0,1-2.84.64,4,4,0,0,1-2.19-.5,1.67,1.67,0,0,1-.76-1.45,1.55,1.55,0,0,1,.41-1.09,2.24,2.24,0,0,1,1.15-.61,1.14,1.14,0,0,1-.49-.41,1.05,1.05,0,0,1-.2-.6,1,1,0,0,1,.23-.66,2.38,2.38,0,0,1,.66-.54,2,2,0,0,1-.89-.77,2.2,2.2,0,0,1-.34-1.24,2.23,2.23,0,0,1,.72-1.77,3,3,0,0,1,2.05-.63c.2,0,.41,0,.63,0a4.06,4.06,0,0,1,.49.09ZM63,160a.81.81,0,0,0,.43.74,2.33,2.33,0,0,0,1.22.26,3.74,3.74,0,0,0,1.82-.34,1.06,1.06,0,0,0,.6-.93.69.69,0,0,0-.33-.65,2.63,2.63,0,0,0-1.22-.2H64.38a1.63,1.63,0,0,0-1,.31A1,1,0,0,0,63,160Zm.64-5.84a1.41,1.41,0,0,0,.34,1,1.29,1.29,0,0,0,1,.35c.86,0,1.3-.46,1.3-1.38a1.6,1.6,0,0,0-.32-1.06,1.22,1.22,0,0,0-1-.37,1.24,1.24,0,0,0-1,.37A1.54,1.54,0,0,0,63.63,154.13Z"/><path class="cls-3" d="M71.3,158.88H69.8V149h1.5Z"/><path class="cls-3" d="M73.34,150a.83.83,0,0,1,.22-.62.85.85,0,0,1,.62-.21A.75.75,0,0,1,75,150a.85.85,0,0,1-.22.6.83.83,0,0,1-.62.22.76.76,0,0,1-.84-.82Zm1.58,8.88H73.43v-7h1.49Z"/><path class="cls-3" d="M81.77,156.88a1.84,1.84,0,0,1-.75,1.58,3.63,3.63,0,0,1-2.15.55,5,5,0,0,1-2.25-.43v-1.29a5.55,5.55,0,0,0,2.31.57c.91,0,1.37-.27,1.37-.83a.65.65,0,0,0-.15-.44,1.84,1.84,0,0,0-.5-.37,8.12,8.12,0,0,0-1-.43,4.42,4.42,0,0,1-1.64-.94,1.72,1.72,0,0,1-.43-1.22,1.6,1.6,0,0,1,.72-1.4,3.5,3.5,0,0,1,2-.5,5.62,5.62,0,0,1,2.34.5l-.48,1.13a5,5,0,0,0-1.91-.47c-.79,0-1.18.22-1.18.67a.67.67,0,0,0,.31.56,6.88,6.88,0,0,0,1.34.63,6.17,6.17,0,0,1,1.26.61,1.71,1.71,0,0,1,.78,1.52Z"/><path class="cls-3" d="M89.56,158.88h-1.5v-4.32a1.88,1.88,0,0,0-.33-1.21,1.25,1.25,0,0,0-1-.4,1.67,1.67,0,0,0-1.38.56,3.14,3.14,0,0,0-.44,1.89v3.48H83.38V149h1.49v2.51a11.91,11.91,0,0,1-.07,1.29h.09a2.16,2.16,0,0,1,.85-.79,2.8,2.8,0,0,1,1.27-.28,2.26,2.26,0,0,1,2.55,2.57Z"/><path class="cls-3" d="M210.41,156.4a.57.57,0,0,1-.82,0l-1.26-1.62-1.27-1.61c-.18-.23.05-.52.41-.52h5.06c.36,0,.59.29.41.52l-1.27,1.61Z"/><path class="cls-4" d="M42.84,224.49H40.42v-9.4h-3.1v-2H46v2H42.84Z"/><path class="cls-4" d="M51.47,224.65a4.53,4.53,0,0,1-3.3-1.16,4.43,4.43,0,0,1-1.19-3.3,4.88,4.88,0,0,1,1.1-3.4,3.92,3.92,0,0,1,3-1.2A3.87,3.87,0,0,1,54,216.65a4,4,0,0,1,1,2.91v1.16H49.4a2.25,2.25,0,0,0,.6,1.59,2.13,2.13,0,0,0,1.58.57,6.54,6.54,0,0,0,1.49-.17,7.43,7.43,0,0,0,1.47-.52V224a5.46,5.46,0,0,1-1.34.47A8.49,8.49,0,0,1,51.47,224.65Zm-.34-7.36a1.49,1.49,0,0,0-1.18.48,2.2,2.2,0,0,0-.5,1.36H52.8a2,2,0,0,0-.46-1.36A1.57,1.57,0,0,0,51.13,217.29Z"/><path class="cls-4" d="M64.79,224.49H62.41v-5.1a2.59,2.59,0,0,0-.32-1.42,1.12,1.12,0,0,0-1-.47,1.44,1.44,0,0,0-1.32.67,4.37,4.37,0,0,0-.42,2.21v4.11H57v-8.73h1.82l.32,1.12h.13a2.47,2.47,0,0,1,1-.95,3.37,3.37,0,0,1,1.52-.34,2.75,2.75,0,0,1,2.66,1.29h.21a2.32,2.32,0,0,1,1-.95,3.53,3.53,0,0,1,1.55-.34,3,3,0,0,1,2.24.77,3.32,3.32,0,0,1,.76,2.44v5.69H67.84v-5.1a2.6,2.6,0,0,0-.31-1.42,1.13,1.13,0,0,0-1-.47,1.49,1.49,0,0,0-1.31.63,3.5,3.5,0,0,0-.43,2Z"/><path class="cls-4" d="M77.48,224.65a2.9,2.9,0,0,1-2.42-1.12h-.12c.08.73.12,1.15.12,1.27v3.54H72.68V215.76h1.94l.33,1.13h.11a2.78,2.78,0,0,1,2.48-1.3,2.82,2.82,0,0,1,2.42,1.2,5.55,5.55,0,0,1,.88,3.32,6.65,6.65,0,0,1-.41,2.43,3.48,3.48,0,0,1-1.17,1.57A3,3,0,0,1,77.48,224.65Zm-.71-7.15a1.51,1.51,0,0,0-1.29.54,3.15,3.15,0,0,0-.42,1.8v.25a3.69,3.69,0,0,0,.42,2,1.48,1.48,0,0,0,1.32.61c1.07,0,1.61-.88,1.61-2.64a3.78,3.78,0,0,0-.4-1.93A1.34,1.34,0,0,0,76.77,217.5Z"/><path class="cls-4" d="M85.19,224.49H82.8V212.34h2.39Z"/><path class="cls-4" d="M93.23,224.49l-.46-1.18h-.06a3.57,3.57,0,0,1-1.24,1.05,4.09,4.09,0,0,1-1.66.29,2.68,2.68,0,0,1-2-.72,2.77,2.77,0,0,1-.72-2.05,2.31,2.31,0,0,1,1-2A5.69,5.69,0,0,1,91,219.1l1.51,0v-.39a1.19,1.19,0,0,0-1.36-1.33,6.23,6.23,0,0,0-2.46.64l-.79-1.61a7.08,7.08,0,0,1,3.35-.79,4.15,4.15,0,0,1,2.69.76,2.83,2.83,0,0,1,.94,2.33v5.82Zm-.7-4-.92,0a3,3,0,0,0-1.55.37,1.18,1.18,0,0,0-.51,1.05c0,.67.39,1,1.16,1a1.86,1.86,0,0,0,1.33-.48,1.67,1.67,0,0,0,.49-1.26Z"/><path class="cls-4" d="M101,222.75a5.19,5.19,0,0,0,1.5-.27v1.77a5.26,5.26,0,0,1-2.19.4,2.69,2.69,0,0,1-2.08-.72,3.18,3.18,0,0,1-.65-2.17v-4.21H96.47v-1l1.31-.8.69-1.84H100v1.86h2.45v1.79H100v4.21a.93.93,0,0,0,.29.75A1.13,1.13,0,0,0,101,222.75Z"/><path class="cls-4" d="M108.25,224.65a4.53,4.53,0,0,1-3.3-1.16,4.43,4.43,0,0,1-1.18-3.3,4.88,4.88,0,0,1,1.09-3.4,3.92,3.92,0,0,1,3-1.2,3.87,3.87,0,0,1,2.88,1.06,4,4,0,0,1,1,2.91v1.16h-5.63a2.34,2.34,0,0,0,.6,1.59,2.13,2.13,0,0,0,1.58.57,6.48,6.48,0,0,0,1.49-.17,7.43,7.43,0,0,0,1.47-.52V224a5.46,5.46,0,0,1-1.34.47A8.49,8.49,0,0,1,108.25,224.65Zm-.34-7.36a1.49,1.49,0,0,0-1.18.48,2.27,2.27,0,0,0-.5,1.36h3.35a2,2,0,0,0-.46-1.36A1.57,1.57,0,0,0,107.91,217.29Z"/><rect class="cls-5" x="38" y="236" width="185" height="33" rx="4.05" ry="4.05"/><path class="cls-3" d="M54.77,252.15a4.62,4.62,0,0,1-1.27,3.51,5.14,5.14,0,0,1-3.68,1.22H47.23V247.6h2.86a4.77,4.77,0,0,1,3.45,1.19A4.48,4.48,0,0,1,54.77,252.15Zm-1.6,0q0-3.33-3.11-3.33H48.74v6.73h1.08C52.06,255.6,53.17,254.47,53.17,252.2Z"/><path class="cls-3" d="M59.67,257a3.39,3.39,0,0,1-2.56-1,3.65,3.65,0,0,1-.92-2.63,4,4,0,0,1,.85-2.7,3,3,0,0,1,2.36-1,2.88,2.88,0,0,1,2.2.85,3.24,3.24,0,0,1,.8,2.32v.81H57.72a2.35,2.35,0,0,0,.56,1.57,1.92,1.92,0,0,0,1.46.55,5.3,5.3,0,0,0,1.16-.12,6.25,6.25,0,0,0,1.15-.39v1.21a4.6,4.6,0,0,1-1.1.37A6.94,6.94,0,0,1,59.67,257Zm-.27-6.15a1.51,1.51,0,0,0-1.14.45,2.16,2.16,0,0,0-.51,1.32h3.19a2,2,0,0,0-.42-1.32A1.44,1.44,0,0,0,59.4,250.86Z"/><path class="cls-3" d="M67.62,251H65.91v5.89h-1.5V251H63.25v-.7l1.16-.46v-.45a2.57,2.57,0,0,1,.58-1.85,2.4,2.4,0,0,1,1.79-.6,4.79,4.79,0,0,1,1.54.26l-.39,1.13a3.38,3.38,0,0,0-1.05-.17.85.85,0,0,0-.74.31,1.53,1.53,0,0,0-.23.94v.46h1.71Z"/><path class="cls-3" d="M73.21,256.88l-.3-1h0a2.9,2.9,0,0,1-1,.88,3.29,3.29,0,0,1-1.32.23,2.24,2.24,0,0,1-1.61-.56,2.08,2.08,0,0,1-.58-1.58,1.87,1.87,0,0,1,.8-1.64,4.62,4.62,0,0,1,2.46-.6l1.21,0v-.38a1.41,1.41,0,0,0-.31-1,1.3,1.3,0,0,0-1-.33,3.57,3.57,0,0,0-1,.15,7.24,7.24,0,0,0-1,.38L69,250.34a4.87,4.87,0,0,1,1.25-.45,5.4,5.4,0,0,1,1.28-.16,3,3,0,0,1,2,.59,2.3,2.3,0,0,1,.68,1.83v4.73Zm-2.23-1a1.86,1.86,0,0,0,1.31-.45,1.64,1.64,0,0,0,.49-1.27v-.61l-.9,0a3,3,0,0,0-1.53.35,1.07,1.07,0,0,0-.48,1,.94.94,0,0,0,.28.73A1.18,1.18,0,0,0,71,255.86Z"/><path class="cls-3" d="M81.31,256.88,81.1,256H81a2.1,2.1,0,0,1-.89.77,3,3,0,0,1-1.31.28,2.54,2.54,0,0,1-1.9-.64,2.61,2.61,0,0,1-.63-1.92v-4.59H77.8v4.33a1.88,1.88,0,0,0,.33,1.21,1.24,1.24,0,0,0,1,.4,1.65,1.65,0,0,0,1.38-.56,3.13,3.13,0,0,0,.44-1.88v-3.5h1.5v7Z"/><path class="cls-3" d="M86.1,256.88H84.61V247H86.1Z"/><path class="cls-3" d="M90.85,255.8a3.8,3.8,0,0,0,1.09-.17v1.12a2.76,2.76,0,0,1-.64.18,4.28,4.28,0,0,1-.81.08c-1.41,0-2.12-.75-2.12-2.24V251h-1v-.66l1-.55L89,248.3h.92v1.56h2V251h-2v3.76a1,1,0,0,0,.27.79A1,1,0,0,0,90.85,255.8Z"/><path class="cls-3" d="M210.41,254.74a.57.57,0,0,1-.82,0l-1.26-1.61-1.27-1.61c-.18-.23.05-.52.41-.52h5.06c.36,0,.59.29.41.52l-1.27,1.61Z"/><circle class="cls-6" cx="56.5" cy="721" r="18.5"/><path class="cls-3" d="M52.06,728.35a3.66,3.66,0,0,1-1.28-.2v-1.57a4.84,4.84,0,0,0,1.14.17c1,0,1.53-.65,1.53-1.94V713.74h1.88v11a3.9,3.9,0,0,1-.83,2.67A3.11,3.11,0,0,1,52.06,728.35Z"/><path class="cls-3" d="M58.29,725.16V713.74h1.87v11.42Z"/><path class="cls-3" d="M86.73,729a3.64,3.64,0,0,1-1.28-.19v-1.57a4.77,4.77,0,0,0,1.14.16c1,0,1.53-.64,1.53-1.93V714.41H90v11a3.86,3.86,0,0,1-.83,2.68A3.07,3.07,0,0,1,86.73,729Z"/><path class="cls-3" d="M98.85,725.83l-.25-1.14h-.1a2.54,2.54,0,0,1-1.09.95,3.63,3.63,0,0,1-1.61.34,3.15,3.15,0,0,1-2.34-.78,3.22,3.22,0,0,1-.78-2.37v-5.64h1.85v5.32a2.3,2.3,0,0,0,.41,1.49,1.56,1.56,0,0,0,1.27.5,2,2,0,0,0,1.7-.69,3.84,3.84,0,0,0,.55-2.32v-4.3h1.84v8.64Z"/><path class="cls-3" d="M104.75,725.83h-1.83V713.67h1.83Z"/><path class="cls-3" d="M107.27,714.9a1,1,0,1,1,2.06,0,.93.93,0,0,1-1,1,1,1,0,0,1-.77-.27A1,1,0,0,1,107.27,714.9Zm1.94,10.93h-1.83v-8.64h1.83Z"/><path class="cls-3" d="M119.5,721.49a4.76,4.76,0,0,1-1.08,3.31,3.92,3.92,0,0,1-3,1.18,4.2,4.2,0,0,1-2.14-.54,3.69,3.69,0,0,1-1.43-1.57,5.44,5.44,0,0,1-.5-2.38,4.68,4.68,0,0,1,1.08-3.28,3.9,3.9,0,0,1,3-1.18,3.79,3.79,0,0,1,3,1.21A4.65,4.65,0,0,1,119.5,721.49Zm-6.29,0c0,2,.74,3,2.21,3s2.19-1,2.19-3-.73-3-2.2-3a1.9,1.9,0,0,0-1.68.77A3.94,3.94,0,0,0,113.21,721.49Z"/><path class="cls-3" d="M126,725.83V714.41h1.87v11.42Z"/><path class="cls-3" d="M138.25,725.83h-1.84v-5.32A2.39,2.39,0,0,0,136,719a1.56,1.56,0,0,0-1.28-.49,2,2,0,0,0-1.7.69,3.77,3.77,0,0,0-.54,2.3v4.31h-1.84v-8.64h1.44l.26,1.13h.09a2.53,2.53,0,0,1,1.11-1,3.63,3.63,0,0,1,1.59-.34c2.08,0,3.11,1.05,3.11,3.16Z"/><path class="cls-3" d="M148.1,717.19v1l-1.47.28a2.46,2.46,0,0,1,.33.67,2.64,2.64,0,0,1,.14.84,2.57,2.57,0,0,1-.93,2.1,3.79,3.79,0,0,1-2.53.77,4.22,4.22,0,0,1-.75-.06,1,1,0,0,0-.6.86.46.46,0,0,0,.28.44,2.35,2.35,0,0,0,1,.15h1.51a3.34,3.34,0,0,1,2.17.61,2.16,2.16,0,0,1,.74,1.76,2.54,2.54,0,0,1-1.21,2.26,6.3,6.3,0,0,1-3.5.8,4.9,4.9,0,0,1-2.7-.62,2,2,0,0,1-.93-1.79,1.9,1.9,0,0,1,.51-1.34,2.66,2.66,0,0,1,1.41-.75,1.35,1.35,0,0,1-.61-.5,1.27,1.27,0,0,1-.24-.73,1.25,1.25,0,0,1,.28-.82,3,3,0,0,1,.81-.67,2.35,2.35,0,0,1-1.09-.94,3.07,3.07,0,0,1,.47-3.71,3.75,3.75,0,0,1,2.53-.77,7.09,7.09,0,0,1,.77.05,5.16,5.16,0,0,1,.6.11Zm-6.79,10a1,1,0,0,0,.54.91,2.88,2.88,0,0,0,1.5.33,4.64,4.64,0,0,0,2.24-.43,1.29,1.29,0,0,0,.73-1.15.86.86,0,0,0-.4-.8,3.41,3.41,0,0,0-1.5-.23H143a1.94,1.94,0,0,0-1.25.37A1.21,1.21,0,0,0,141.31,727.17Zm.79-7.19a1.72,1.72,0,0,0,.42,1.25,1.56,1.56,0,0,0,1.2.44c1.06,0,1.59-.57,1.59-1.7a1.94,1.94,0,0,0-.39-1.3,1.48,1.48,0,0,0-1.2-.46,1.57,1.57,0,0,0-1.21.45A1.93,1.93,0,0,0,142.1,720Z"/><path class="cls-3" d="M151.54,725.83h-1.83V713.67h1.83Z"/><path class="cls-3" d="M157.94,726a4.19,4.19,0,0,1-3.15-1.17,4.48,4.48,0,0,1-1.14-3.24,4.88,4.88,0,0,1,1.06-3.33,4.05,4.05,0,0,1,5.6-.17,4,4,0,0,1,1,2.86v1h-5.76a2.83,2.83,0,0,0,.68,1.93,2.38,2.38,0,0,0,1.81.68,7,7,0,0,0,1.42-.14,8.2,8.2,0,0,0,1.42-.48v1.49a5.86,5.86,0,0,1-1.36.45A8.23,8.23,0,0,1,157.94,726Zm-.34-7.56a1.84,1.84,0,0,0-1.4.56,2.64,2.64,0,0,0-.63,1.61h3.92A2.41,2.41,0,0,0,159,719,1.75,1.75,0,0,0,157.6,718.42Z"/><path class="cls-3" d="M169.16,725.83H162.6v-1.14l4.37-6.1h-4.1v-1.4H169v1.28l-4.27,5.95h4.4Z"/><path class="cls-3" d="M178.59,719.17a.57.57,0,0,1,.82,0l1.26,1.62,1.27,1.61c.18.23-.05.52-.41.52h-5.06c-.36,0-.59-.29-.41-.52l1.27-1.61Z"/><rect class="cls-3" x="261" width="939" height="68"/><line class="cls-7" x1="261" y1="68.5" x2="1200" y2="68.5"/><path class="cls-8" d="M317.63,37.32l-2.58-8.4H315c.09,1.71.14,2.85.14,3.42v5h-2V26.61h3.09l2.53,8.19h0l2.69-8.19h3.09V37.32h-2.12V32.25c0-.24,0-.51,0-.83s0-1.14.1-2.49h-.07l-2.76,8.39Z"/><path class="cls-8" d="M325.89,29.13h2.45l1.55,4.61a6.52,6.52,0,0,1,.27,1.42h0a5.88,5.88,0,0,1,.32-1.42L332,29.13h2.4L331,38.37a4,4,0,0,1-1.36,1.92,3.42,3.42,0,0,1-2.06.63,5.35,5.35,0,0,1-1.13-.12V39a4,4,0,0,0,.88.09,1.58,1.58,0,0,0,1-.36,2.27,2.27,0,0,0,.69-1.1l.14-.4Z"/><path class="cls-8" d="M341.9,37.32h-2.23V26.61h6.14v1.86H341.9v2.76h3.64v1.86H341.9Z"/><path class="cls-8" d="M355.17,33.21a4.38,4.38,0,0,1-1.06,3.13,3.82,3.82,0,0,1-2.93,1.13A4.14,4.14,0,0,1,349.1,37a3.49,3.49,0,0,1-1.39-1.48,5,5,0,0,1-.48-2.26,4.36,4.36,0,0,1,1-3.12A3.85,3.85,0,0,1,351.22,29a4.14,4.14,0,0,1,2.08.51A3.47,3.47,0,0,1,354.69,31,5,5,0,0,1,355.17,33.21Zm-5.66,0a3.42,3.42,0,0,0,.4,1.84,1.43,1.43,0,0,0,1.3.62,1.39,1.39,0,0,0,1.28-.62,3.47,3.47,0,0,0,.39-1.84,3.4,3.4,0,0,0-.39-1.82,1.69,1.69,0,0,0-2.59,0A3.46,3.46,0,0,0,349.51,33.21Z"/><path class="cls-8" d="M361.58,29a4,4,0,0,1,.76.06l-.17,2.1a2.52,2.52,0,0,0-.66-.07,2.37,2.37,0,0,0-1.66.54,2,2,0,0,0-.6,1.54v4.17H357V29.13h1.7l.33,1.38h.11a3,3,0,0,1,1-1.11A2.58,2.58,0,0,1,361.58,29Z"/><path class="cls-8" d="M371.16,37.32h-2.24V32.54a2.39,2.39,0,0,0-.29-1.33,1,1,0,0,0-.94-.44,1.35,1.35,0,0,0-1.24.63,4.08,4.08,0,0,0-.39,2.07v3.85h-2.23V29.13h1.7l.3,1.05H366a2.19,2.19,0,0,1,1-.88,3,3,0,0,1,1.43-.32,2.58,2.58,0,0,1,2.49,1.2h.2a2.21,2.21,0,0,1,1-.89,3.21,3.21,0,0,1,1.44-.31,2.89,2.89,0,0,1,2.11.71,3.17,3.17,0,0,1,.71,2.29v5.34H374V32.54a2.38,2.38,0,0,0-.3-1.33,1,1,0,0,0-.93-.44,1.39,1.39,0,0,0-1.23.58,3.34,3.34,0,0,0-.4,1.86Z"/><path class="cls-8" d="M384.27,34.89a2.24,2.24,0,0,1-.88,1.92,4.3,4.3,0,0,1-2.62.66,8.28,8.28,0,0,1-1.52-.12,5.58,5.58,0,0,1-1.18-.36V35.15a9.14,9.14,0,0,0,1.4.49,5.74,5.74,0,0,0,1.38.19c.81,0,1.21-.23,1.21-.7a.57.57,0,0,0-.16-.43,2.44,2.44,0,0,0-.55-.37c-.27-.14-.62-.3-1.06-.49a6.83,6.83,0,0,1-1.39-.73,2.1,2.1,0,0,1-.64-.77,2.48,2.48,0,0,1-.2-1.08,1.93,1.93,0,0,1,.84-1.68,4.13,4.13,0,0,1,2.4-.6,6.78,6.78,0,0,1,2.88.64l-.67,1.61c-.41-.17-.8-.32-1.15-.43a3.7,3.7,0,0,0-1.09-.17q-1,0-1,.54a.62.62,0,0,0,.32.52,9.16,9.16,0,0,0,1.39.65,6.88,6.88,0,0,1,1.41.72,2.09,2.09,0,0,1,.87,1.83Z"/><path class="cls-9" d="M285,39.47a1.75,1.75,0,0,0,1.75,1.75h11a1.74,1.74,0,0,0,1.7-1.75V34.26a.73.73,0,0,0-.71-.71h-.14a.75.75,0,0,0-.57.71v4.17a1.32,1.32,0,0,1-1.32,1.32h-8.9a1.32,1.32,0,0,1-1.33-1.32V34.26a.77.77,0,0,0-.71-.76h0a.7.7,0,0,0-.71.71v5.26Z"/><path class="cls-9" d="M283.58,32.36l8.62-8.19,8.62,8.14a.86.86,0,0,0,.47.19h0a.66.66,0,0,0,.47-.24.72.72,0,0,0,.19-.52.69.69,0,0,0-.14-.38l-.14-.09-9.05-8.57a.68.68,0,0,0-.94,0l-9.09,8.57a.72.72,0,0,0,.94,1.09Z"/><path class="cls-9" d="M298.26,21.32a.89.89,0,0,0-.57-.24h0a.8.8,0,0,0-.8.81v1.94a.78.78,0,0,0,.23.56l1.38,1.38V21.89A.69.69,0,0,0,298.26,21.32Z"/><g id="fnf_cookiecrumb_arrow" data-name="fnf cookiecrumb arrow"><path id="Fill-82" class="cls-10" d="M396.2,35.9l-1-1a.45.45,0,0,1,0-.5l1.6-1.6a.25.25,0,0,0,.1-.4l-1.7-1.8a.45.45,0,0,1,0-.5l.9-.9a.45.45,0,0,1,.5,0l3,3a.48.48,0,0,1,0,.7l-3,2.9A.25.25,0,0,1,396.2,35.9Z"/></g><path class="cls-11" d="M439,40.47a4.87,4.87,0,0,1-1.34-.16V38.42a4.3,4.3,0,0,0,1.07.15,1.22,1.22,0,0,0,1.07-.47,2.62,2.62,0,0,0,.32-1.45v-10h2.27v10a4.25,4.25,0,0,1-.86,2.86A3.18,3.18,0,0,1,439,40.47Z"/><path class="cls-11" d="M450.09,37.32l-.43-1.11h-.06a3.39,3.39,0,0,1-1.16,1,3.66,3.66,0,0,1-1.56.28,2.53,2.53,0,0,1-1.86-.68,2.6,2.6,0,0,1-.67-1.92,2.15,2.15,0,0,1,.91-1.92,5.27,5.27,0,0,1,2.75-.68l1.42-.05v-.36a1.11,1.11,0,0,0-1.27-1.24,5.86,5.86,0,0,0-2.31.59l-.74-1.51a6.69,6.69,0,0,1,3.13-.74,3.91,3.91,0,0,1,2.53.72,2.65,2.65,0,0,1,.88,2.18v5.46Zm-.66-3.79-.86,0a2.7,2.7,0,0,0-1.45.35,1.09,1.09,0,0,0-.48,1c0,.63.36.94,1.08.94a1.74,1.74,0,0,0,1.24-.44,1.59,1.59,0,0,0,.47-1.19Z"/><path class="cls-11" d="M461.51,37.32h-2.24V32.54a2.29,2.29,0,0,0-.31-1.33,1.14,1.14,0,0,0-1-.44,1.5,1.5,0,0,0-1.36.62,3.88,3.88,0,0,0-.42,2.08v3.85H454V29.13h1.71l.3,1.05h.12a2.31,2.31,0,0,1,1-.9,3.54,3.54,0,0,1,1.49-.3,2.9,2.9,0,0,1,2.17.77,3.13,3.13,0,0,1,.74,2.23Z"/><path class="cls-11" d="M469.61,37.32l-.3-1h-.12a2.4,2.4,0,0,1-1,.89,3.59,3.59,0,0,1-1.5.31,2.82,2.82,0,0,1-2.17-.78,3.08,3.08,0,0,1-.74-2.22V29.13H466v4.78a2.27,2.27,0,0,0,.31,1.33,1.15,1.15,0,0,0,1,.45,1.5,1.5,0,0,0,1.35-.63,3.88,3.88,0,0,0,.42-2.08V29.13h2.23v8.19Z"/><path class="cls-11" d="M478.87,37.32l-.44-1.11h-.05a3.32,3.32,0,0,1-1.17,1,3.58,3.58,0,0,1-1.55.28,2.52,2.52,0,0,1-1.86-.68,2.6,2.6,0,0,1-.68-1.92A2.15,2.15,0,0,1,474,33a5.24,5.24,0,0,1,2.75-.68l1.42-.05v-.36a1.11,1.11,0,0,0-1.28-1.24,6,6,0,0,0-2.31.59l-.73-1.51A6.66,6.66,0,0,1,477,29a3.91,3.91,0,0,1,2.53.72,2.68,2.68,0,0,1,.88,2.18v5.46Zm-.66-3.79-.87,0a2.73,2.73,0,0,0-1.45.35,1.09,1.09,0,0,0-.47,1c0,.63.36.94,1.08.94a1.74,1.74,0,0,0,1.24-.44,1.59,1.59,0,0,0,.47-1.19Z"/><path class="cls-11" d="M487.3,29a3.92,3.92,0,0,1,.75.06l-.17,2.1a2.52,2.52,0,0,0-.66-.07,2.37,2.37,0,0,0-1.66.54,2,2,0,0,0-.6,1.54v4.17h-2.23V29.13h1.69l.33,1.38h.11a3,3,0,0,1,1-1.11A2.53,2.53,0,0,1,487.3,29Z"/><path class="cls-11" d="M488.37,29.13h2.44l1.55,4.61a6.52,6.52,0,0,1,.27,1.42h0a6.4,6.4,0,0,1,.32-1.42l1.51-4.61h2.4l-3.47,9.24a4,4,0,0,1-1.35,1.92,3.48,3.48,0,0,1-2.07.63,5.35,5.35,0,0,1-1.13-.12V39a4,4,0,0,0,.88.09,1.58,1.58,0,0,0,1-.36,2.35,2.35,0,0,0,.7-1.1l.13-.4Z"/><path class="cls-11" d="M506.69,28.35a2.3,2.3,0,0,0-2,1A4.48,4.48,0,0,0,504,32c0,2.38.9,3.58,2.69,3.58a8.42,8.42,0,0,0,2.73-.57v1.91a7.7,7.7,0,0,1-2.94.55,4.52,4.52,0,0,1-3.58-1.42A6,6,0,0,1,501.67,32a6.75,6.75,0,0,1,.6-2.93A4.47,4.47,0,0,1,504,27.13a5.14,5.14,0,0,1,2.67-.67,7.26,7.26,0,0,1,3.14.75l-.74,1.85a11.43,11.43,0,0,0-1.21-.5A3.6,3.6,0,0,0,506.69,28.35Z"/><path class="cls-11" d="M516.72,37.32l-.43-1.11h-.06a3.22,3.22,0,0,1-1.16,1,3.61,3.61,0,0,1-1.55.28,2.52,2.52,0,0,1-1.86-.68,2.6,2.6,0,0,1-.68-1.92,2.17,2.17,0,0,1,.91-1.92,5.29,5.29,0,0,1,2.75-.68l1.43-.05v-.36a1.11,1.11,0,0,0-1.28-1.24,6,6,0,0,0-2.31.59l-.74-1.51a6.73,6.73,0,0,1,3.14-.74,3.91,3.91,0,0,1,2.53.72,2.67,2.67,0,0,1,.87,2.18v5.46Zm-.65-3.79-.87,0a2.73,2.73,0,0,0-1.45.35,1.09,1.09,0,0,0-.48,1c0,.63.37.94,1.09.94a1.74,1.74,0,0,0,1.24-.44,1.59,1.59,0,0,0,.47-1.19Z"/><path class="cls-11" d="M527.92,37.32h-2.24V32.54a2.48,2.48,0,0,0-.29-1.33,1,1,0,0,0-.94-.44,1.35,1.35,0,0,0-1.24.63,4.08,4.08,0,0,0-.39,2.07v3.85h-2.24V29.13h1.71l.3,1.05h.13a2.19,2.19,0,0,1,.95-.88A3,3,0,0,1,525.1,29a2.58,2.58,0,0,1,2.49,1.2h.19a2.27,2.27,0,0,1,1-.89A3.25,3.25,0,0,1,530.2,29a2.89,2.89,0,0,1,2.11.71A3.17,3.17,0,0,1,533,32v5.34h-2.24V32.54a2.38,2.38,0,0,0-.3-1.33,1,1,0,0,0-.93-.44,1.39,1.39,0,0,0-1.23.58,3.34,3.34,0,0,0-.4,1.86Z"/><path class="cls-11" d="M539.81,37.47a2.7,2.7,0,0,1-2.26-1h-.12c.08.68.12,1.08.12,1.19v3.31h-2.24V29.13h1.82l.31,1.06h.11A2.57,2.57,0,0,1,539.87,29a2.65,2.65,0,0,1,2.27,1.12,5.15,5.15,0,0,1,.82,3.11,6.29,6.29,0,0,1-.38,2.28,3.29,3.29,0,0,1-1.1,1.47A2.78,2.78,0,0,1,539.81,37.47Zm-.66-6.7a1.44,1.44,0,0,0-1.21.5,3,3,0,0,0-.39,1.69v.24a3.46,3.46,0,0,0,.39,1.89,1.39,1.39,0,0,0,1.24.57c1,0,1.5-.83,1.5-2.48a3.5,3.5,0,0,0-.37-1.81A1.25,1.25,0,0,0,539.15,30.77Z"/><path class="cls-11" d="M550,37.32l-.44-1.11h-.05a3.32,3.32,0,0,1-1.17,1,3.58,3.58,0,0,1-1.55.28,2.52,2.52,0,0,1-1.86-.68,2.6,2.6,0,0,1-.68-1.92,2.15,2.15,0,0,1,.92-1.92,5.24,5.24,0,0,1,2.75-.68l1.42-.05v-.36a1.11,1.11,0,0,0-1.28-1.24,5.86,5.86,0,0,0-2.3.59L545,29.7a6.66,6.66,0,0,1,3.13-.74,3.91,3.91,0,0,1,2.53.72,2.68,2.68,0,0,1,.88,2.18v5.46Zm-.66-3.79-.87,0a2.73,2.73,0,0,0-1.45.35,1.09,1.09,0,0,0-.47,1c0,.63.36.94,1.08.94a1.74,1.74,0,0,0,1.24-.44,1.59,1.59,0,0,0,.47-1.19Z"/><path class="cls-11" d="M553.77,27c0-.73.41-1.1,1.22-1.1s1.21.37,1.21,1.1a1.06,1.06,0,0,1-.3.8,1.25,1.25,0,0,1-.91.29C554.18,28.11,553.77,27.75,553.77,27Zm2.33,10.3h-2.23V29.13h2.23Z"/><path class="cls-11" d="M565.57,29.13v1.14l-1.28.33a2.24,2.24,0,0,1,.35,1.23,2.48,2.48,0,0,1-.92,2.05,4,4,0,0,1-2.55.74l-.4,0-.33,0a.74.74,0,0,0-.35.59q0,.48,1.23.48h1.39a3.16,3.16,0,0,1,2.06.58,2.06,2.06,0,0,1,.7,1.7,2.5,2.5,0,0,1-1.19,2.22,6.23,6.23,0,0,1-3.44.79,4.84,4.84,0,0,1-2.62-.59,1.91,1.91,0,0,1-.9-1.68,1.72,1.72,0,0,1,.46-1.23,2.53,2.53,0,0,1,1.35-.71,1.52,1.52,0,0,1-.6-.48,1.16,1.16,0,0,1,0-1.49,3.07,3.07,0,0,1,.78-.61,2.22,2.22,0,0,1-1-.9,2.72,2.72,0,0,1-.38-1.45,2.56,2.56,0,0,1,.87-2.07,3.75,3.75,0,0,1,2.49-.73,6.72,6.72,0,0,1,.82.06l.6.09Zm-6.32,9.35a.8.8,0,0,0,.44.72,2.4,2.4,0,0,0,1.24.27,4.45,4.45,0,0,0,1.89-.33,1,1,0,0,0,.68-.9.65.65,0,0,0-.41-.64,3.17,3.17,0,0,0-1.24-.18h-1.16a1.79,1.79,0,0,0-1,.29A.9.9,0,0,0,559.25,38.48Zm.81-6.67a1.63,1.63,0,0,0,.31,1.06,1.29,1.29,0,0,0,1.85,0,1.76,1.76,0,0,0,.29-1.06c0-1-.41-1.48-1.22-1.48S560.06,30.83,560.06,31.81Z"/><path class="cls-11" d="M574.48,37.32h-2.24V32.54a2.29,2.29,0,0,0-.31-1.33,1.14,1.14,0,0,0-1-.44,1.5,1.5,0,0,0-1.35.62,3.88,3.88,0,0,0-.42,2.08v3.85h-2.23V29.13h1.7l.3,1.05h.13a2.31,2.31,0,0,1,1-.9,3.51,3.51,0,0,1,1.49-.3,2.9,2.9,0,0,1,2.17.77,3.13,3.13,0,0,1,.74,2.23Z"/><g id="Welcome"><g id="form_icon" data-name="form icon"><path class="cls-8" d="M426,26.11h-7a.62.62,0,0,1,0-1.24h7a.62.62,0,1,1,0,1.24Z"/><circle class="cls-8" cx="416.54" cy="25.49" r="0.91"/><path class="cls-8" d="M426,35.74h-7a.63.63,0,0,1-.61-.62.62.62,0,0,1,.61-.61h7a.63.63,0,0,1,.62.61A.64.64,0,0,1,426,35.74Z"/><path class="cls-8" d="M426,39.53h-7a.62.62,0,0,1,0-1.24h7a.62.62,0,1,1,0,1.24Z"/><circle class="cls-8" cx="416.54" cy="35.12" r="0.91"/><circle class="cls-8" cx="416.54" cy="38.91" r="0.91"/><g id="Rectangle-14"><path class="cls-8" d="M416.41,32.49a1,1,0,0,1-1-.87V29.11a1,1,0,0,1,1-.86h9.47a.93.93,0,0,1,1,.82v2.55a1,1,0,0,1-1,.83h-9.47S416.45,32.49,416.41,32.49Zm.45-1.24h8.73a.19.19,0,0,0,.21-.2v-1.4a.19.19,0,0,0-.21-.21h-8.73a.19.19,0,0,0-.2.21v1.4A.19.19,0,0,0,416.86,31.25Z"/></g></g></g><g id="Rectangle-11"><path class="cls-8" d="M428.64,43H413.86a1.37,1.37,0,0,1-1.36-1.36V22.77a1.37,1.37,0,0,1,1.36-1.36h14.78A1.37,1.37,0,0,1,430,22.77v18.9A1.37,1.37,0,0,1,428.64,43ZM414.35,22.65a.63.63,0,0,0-.61.61V41.14a.63.63,0,0,0,.61.61h13.8a.63.63,0,0,0,.61-.61V23.26a.63.63,0,0,0-.61-.61Z"/></g><rect class="cls-3" x="499.57" y="309.39" width="461.86" height="217.21" rx="4.9" ry="4.9"/><path class="cls-12" d="M956.53,532.06H504.47c-5.47,0-9.9-4.83-9.9-10.8V314.74c0-6,4.43-10.8,9.9-10.8H956.53c5.47,0,9.9,4.83,9.9,10.8V521.26C966.43,527.23,962,532.06,956.53,532.06ZM508.6,521.15H952.4a4.22,4.22,0,0,0,4-4.4V319.25a4.22,4.22,0,0,0-4-4.4H508.6a4.22,4.22,0,0,0-4,4.4v197.5A4.22,4.22,0,0,0,508.6,521.15Z"/><path class="cls-11" d="M554.47,377.62h-3.63V363.51h-4.65v-3h12.93v3h-4.65Z"/><path class="cls-11" d="M573.39,371a7.05,7.05,0,0,1-1.69,5,6.1,6.1,0,0,1-4.7,1.81,6.58,6.58,0,0,1-3.33-.83,5.45,5.45,0,0,1-2.21-2.37,7.9,7.9,0,0,1-.78-3.61,7,7,0,0,1,1.68-5,6.15,6.15,0,0,1,4.71-1.78,6.58,6.58,0,0,1,3.33.82,5.41,5.41,0,0,1,2.21,2.35A7.89,7.89,0,0,1,573.39,371Zm-9.06,0A5.44,5.44,0,0,0,565,374a2.27,2.27,0,0,0,2.08,1,2.23,2.23,0,0,0,2.05-1,5.55,5.55,0,0,0,.63-2.95,5.44,5.44,0,0,0-.63-2.92,2.29,2.29,0,0,0-2.08-1,2.27,2.27,0,0,0-2.06,1A5.41,5.41,0,0,0,564.33,371Z"/><path class="cls-11" d="M594,364.51v1.82l-2.05.53a3.6,3.6,0,0,1,.56,2,4,4,0,0,1-1.47,3.28,6.34,6.34,0,0,1-4.09,1.18l-.64,0-.53-.06a1.17,1.17,0,0,0-.55.93c0,.52.66.78,2,.78h2.23a5.11,5.11,0,0,1,3.28.92,3.3,3.3,0,0,1,1.13,2.72,4,4,0,0,1-1.91,3.57,10,10,0,0,1-5.5,1.26,7.67,7.67,0,0,1-4.19-.95,3,3,0,0,1-1.45-2.68,2.81,2.81,0,0,1,.74-2,4.2,4.2,0,0,1,2.17-1.14,2.44,2.44,0,0,1-1-.77,1.83,1.83,0,0,1-.41-1.13,1.85,1.85,0,0,1,.44-1.25,5.17,5.17,0,0,1,1.25-1,3.53,3.53,0,0,1-1.63-1.43,4.38,4.38,0,0,1-.61-2.32,4.1,4.1,0,0,1,1.4-3.32,6,6,0,0,1,4-1.17,9.56,9.56,0,0,1,1.31.1c.5.06.83.11,1,.14Zm-10.12,15a1.3,1.3,0,0,0,.71,1.16,3.93,3.93,0,0,0,2,.42,7.06,7.06,0,0,0,3-.53,1.6,1.6,0,0,0,1.09-1.44,1,1,0,0,0-.64-1,5.27,5.27,0,0,0-2-.28h-1.85a2.78,2.78,0,0,0-1.64.46A1.42,1.42,0,0,0,583.86,379.47Zm1.3-10.67a2.7,2.7,0,0,0,.49,1.69,1.77,1.77,0,0,0,1.48.62,1.75,1.75,0,0,0,1.48-.62,2.76,2.76,0,0,0,.47-1.69c0-1.58-.65-2.36-2-2.36S585.16,367.22,585.16,368.8Z"/><path class="cls-11" d="M602.06,377.85a6.71,6.71,0,0,1-4.94-1.75,6.59,6.59,0,0,1-1.78-4.94,7.25,7.25,0,0,1,1.64-5.09,5.88,5.88,0,0,1,4.56-1.8,5.74,5.74,0,0,1,4.32,1.58,6,6,0,0,1,1.55,4.37V372H599a3.44,3.44,0,0,0,.9,2.37,3.17,3.17,0,0,0,2.37.86,9.41,9.41,0,0,0,2.23-.25,10.87,10.87,0,0,0,2.21-.78v2.76a8,8,0,0,1-2,.7A12.72,12.72,0,0,1,602.06,377.85Zm-.5-11a2.26,2.26,0,0,0-1.78.72,3.32,3.32,0,0,0-.74,2.05h5a2.93,2.93,0,0,0-.69-2.05A2.32,2.32,0,0,0,601.56,366.81Z"/><path class="cls-11" d="M615.83,375a7.48,7.48,0,0,0,2.25-.41v2.66a8,8,0,0,1-3.28.6,4,4,0,0,1-3.12-1.08,4.76,4.76,0,0,1-1-3.26V367.2H609v-1.51l2-1.2,1-2.77h2.28v2.79h3.67v2.69h-3.67v6.31a1.42,1.42,0,0,0,.43,1.13A1.7,1.7,0,0,0,615.83,375Z"/><path class="cls-11" d="M636.11,373.72a3.6,3.6,0,0,1-1.4,3.07,6.88,6.88,0,0,1-4.19,1.06,13.06,13.06,0,0,1-2.44-.19,9.44,9.44,0,0,1-1.89-.57v-3a11.85,11.85,0,0,0,2.25.79,9.11,9.11,0,0,0,2.19.32c1.3,0,2-.38,2-1.13a.93.93,0,0,0-.26-.68,3.53,3.53,0,0,0-.89-.6c-.42-.22-1-.48-1.69-.78a10.36,10.36,0,0,1-2.22-1.17,3.34,3.34,0,0,1-1-1.24,4.16,4.16,0,0,1-.32-1.72,3.12,3.12,0,0,1,1.35-2.7,6.64,6.64,0,0,1,3.84-1,10.82,10.82,0,0,1,4.6,1l-1.07,2.58c-.66-.28-1.27-.51-1.84-.69a5.81,5.81,0,0,0-1.75-.27c-1,0-1.58.28-1.58.85a1,1,0,0,0,.51.83,13,13,0,0,0,2.23,1,10.33,10.33,0,0,1,2.25,1.16,3.44,3.44,0,0,1,1.06,1.24A3.92,3.92,0,0,1,636.11,373.72Z"/><path class="cls-11" d="M644.41,375a7.48,7.48,0,0,0,2.25-.41v2.66a8,8,0,0,1-3.28.6,4,4,0,0,1-3.12-1.08,4.76,4.76,0,0,1-1-3.26V367.2h-1.71v-1.51l2-1.2,1-2.77h2.29v2.79h3.66v2.69h-3.66v6.31a1.41,1.41,0,0,0,.42,1.13A1.72,1.72,0,0,0,644.41,375Z"/><path class="cls-11" d="M657.63,377.62l-.69-1.79h-.09a5.21,5.21,0,0,1-1.86,1.58,6.07,6.07,0,0,1-2.49.44,4,4,0,0,1-3-1.08,4.15,4.15,0,0,1-1.08-3.07,3.48,3.48,0,0,1,1.45-3.08,8.48,8.48,0,0,1,4.4-1.09l2.28-.07v-.58a1.78,1.78,0,0,0-2-2,9.31,9.31,0,0,0-3.69.95l-1.19-2.41a10.66,10.66,0,0,1,5-1.19,6.25,6.25,0,0,1,4,1.15,4.24,4.24,0,0,1,1.41,3.49v8.74Zm-1-6.08-1.38,0a4.43,4.43,0,0,0-2.32.56,1.78,1.78,0,0,0-.77,1.57c0,1,.58,1.52,1.74,1.52a2.71,2.71,0,0,0,2-.72,2.51,2.51,0,0,0,.75-1.9Z"/><path class="cls-11" d="M671.12,364.27a5.82,5.82,0,0,1,1.21.1l-.27,3.35a4.54,4.54,0,0,0-1.06-.11,3.75,3.75,0,0,0-2.66.88,3.15,3.15,0,0,0-1,2.46v6.67h-3.57V364.51h2.71l.52,2.21h.18a4.79,4.79,0,0,1,1.65-1.78A4,4,0,0,1,671.12,364.27Z"/><path class="cls-11" d="M680.23,375a7.59,7.59,0,0,0,2.25-.41v2.66a8,8,0,0,1-3.28.6,4,4,0,0,1-3.13-1.08,4.76,4.76,0,0,1-1-3.26V367.2h-1.71v-1.51l2-1.2,1-2.77h2.29v2.79h3.67v2.69h-3.67v6.31a1.39,1.39,0,0,0,.43,1.13A1.68,1.68,0,0,0,680.23,375Z"/><path class="cls-11" d="M691.05,377.85a6.75,6.75,0,0,1-4.94-1.75,6.59,6.59,0,0,1-1.78-4.94,7.29,7.29,0,0,1,1.64-5.09,5.88,5.88,0,0,1,4.56-1.8,5.74,5.74,0,0,1,4.32,1.58,6,6,0,0,1,1.55,4.37V372H688a3.44,3.44,0,0,0,.9,2.37,3.17,3.17,0,0,0,2.37.86,9.55,9.55,0,0,0,2.24-.25,11,11,0,0,0,2.2-.78v2.76a7.9,7.9,0,0,1-2,.7A12.83,12.83,0,0,1,691.05,377.85Zm-.5-11a2.26,2.26,0,0,0-1.78.72,3.32,3.32,0,0,0-.74,2.05h5a3,3,0,0,0-.69-2.05A2.36,2.36,0,0,0,690.55,366.81Z"/><path class="cls-11" d="M703.45,377.85a4.25,4.25,0,0,1-3.62-1.79,10,10,0,0,1,0-10,4.36,4.36,0,0,1,3.7-1.8,4.27,4.27,0,0,1,3.77,1.92h.12a14.64,14.64,0,0,1-.27-2.61v-4.2h3.58v18.24H708l-.69-1.7h-.15A4.08,4.08,0,0,1,703.45,377.85Zm1.26-2.85a2.43,2.43,0,0,0,2-.79,4.66,4.66,0,0,0,.69-2.71v-.39a5.31,5.31,0,0,0-.65-3,2.41,2.41,0,0,0-2.11-.92,2.09,2.09,0,0,0-1.86,1,5.4,5.4,0,0,0-.66,2.94,5.13,5.13,0,0,0,.67,2.91A2.18,2.18,0,0,0,704.71,375Z"/><path class="cls-11" d="M718,375.1a37.24,37.24,0,0,1-2.07,5.61h-2.57c.5-2.08.9-4,1.18-5.88h3.28Z"/><path class="cls-11" d="M733,377.85q-6.12,0-6.12-6.72a7.21,7.21,0,0,1,1.66-5.1,6.26,6.26,0,0,1,4.77-1.76,9,9,0,0,1,4.08.89l-1,2.76c-.56-.22-1.09-.41-1.57-.55a4.93,4.93,0,0,0-1.46-.22c-1.86,0-2.78,1.32-2.78,4s.92,3.85,2.78,3.85a6.43,6.43,0,0,0,1.91-.28,6.65,6.65,0,0,0,1.76-.86v3.06a5.93,5.93,0,0,1-1.75.76A9.86,9.86,0,0,1,733,377.85Z"/><path class="cls-11" d="M743.6,377.62H740V359.38h3.57Z"/><path class="cls-11" d="M747.2,361.13c0-1.17.65-1.75,1.94-1.75s2,.58,2,1.75a1.68,1.68,0,0,1-.49,1.29,2,2,0,0,1-1.46.46C747.85,362.88,747.2,362.3,747.2,361.13Zm3.73,16.49h-3.58V364.51h3.58Z"/><path class="cls-11" d="M760,377.85q-6.12,0-6.12-6.72a7.17,7.17,0,0,1,1.66-5.1,6.26,6.26,0,0,1,4.77-1.76,9,9,0,0,1,4.08.89l-1,2.76c-.57-.22-1.09-.41-1.57-.55a4.93,4.93,0,0,0-1.46-.22q-2.79,0-2.79,4c0,2.56.93,3.85,2.79,3.85a6.43,6.43,0,0,0,1.91-.28,6.81,6.81,0,0,0,1.76-.86v3.06a5.93,5.93,0,0,1-1.75.76A9.92,9.92,0,0,1,760,377.85Z"/><path class="cls-11" d="M770.45,370.49l1.56-2,3.67-4h4l-5.21,5.69,5.52,7.42H775.9l-3.78-5.31-1.53,1.23v4.08H767V359.38h3.57v8.13l-.19,3Z"/><path class="cls-11" d="M793.65,375a7.48,7.48,0,0,0,2.25-.41v2.66a8,8,0,0,1-3.28.6,4,4,0,0,1-3.12-1.08,4.76,4.76,0,0,1-1-3.26V367.2h-1.71v-1.51l2-1.2,1-2.77h2.28v2.79h3.67v2.69h-3.67v6.31a1.42,1.42,0,0,0,.43,1.13A1.7,1.7,0,0,0,793.65,375Z"/><path class="cls-11" d="M810.64,377.62h-3.57V370c0-1.89-.7-2.83-2.11-2.83a2.41,2.41,0,0,0-2.17,1,6.27,6.27,0,0,0-.67,3.3v6.17h-3.57V359.38h3.57v3.72c0,.28,0,1-.08,2l-.08,1.06h.19a4.14,4.14,0,0,1,3.8-1.92,4.64,4.64,0,0,1,3.5,1.24,4.93,4.93,0,0,1,1.19,3.56Z"/><path class="cls-11" d="M820.25,377.85a6.73,6.73,0,0,1-4.94-1.75,6.59,6.59,0,0,1-1.78-4.94,7.29,7.29,0,0,1,1.64-5.09,5.88,5.88,0,0,1,4.56-1.8,5.74,5.74,0,0,1,4.32,1.58,6,6,0,0,1,1.55,4.37V372h-8.45a3.44,3.44,0,0,0,.9,2.37,3.17,3.17,0,0,0,2.37.86,9.55,9.55,0,0,0,2.24-.25,11,11,0,0,0,2.2-.78v2.76a8,8,0,0,1-2,.7A12.9,12.9,0,0,1,820.25,377.85Zm-.5-11a2.26,2.26,0,0,0-1.78.72,3.32,3.32,0,0,0-.74,2.05h5a3,3,0,0,0-.7-2.05A2.32,2.32,0,0,0,819.75,366.81Z"/><path class="cls-11" d="M842,364.27a4.23,4.23,0,0,1,3.63,1.81,8.27,8.27,0,0,1,1.31,5,8.18,8.18,0,0,1-1.35,5,4.73,4.73,0,0,1-7.31.1h-.24l-.6,1.45h-2.73V359.38h3.57v4.24c0,.54,0,1.41-.14,2.59h.14A4.16,4.16,0,0,1,842,364.27Zm-1.15,2.86a2.25,2.25,0,0,0-1.93.81,4.67,4.67,0,0,0-.64,2.69V371a5.5,5.5,0,0,0,.63,3,2.24,2.24,0,0,0,2,.92,2,2,0,0,0,1.75-1,5.51,5.51,0,0,0,.65-2.95,5.21,5.21,0,0,0-.66-2.9A2.06,2.06,0,0,0,840.88,367.13Z"/><path class="cls-11" d="M859.21,377.62l-.48-1.68h-.19a3.75,3.75,0,0,1-1.63,1.41,5.57,5.57,0,0,1-2.4.5,4.55,4.55,0,0,1-3.48-1.24,5,5,0,0,1-1.17-3.55v-8.55h3.57v7.66a3.71,3.71,0,0,0,.5,2.12,1.82,1.82,0,0,0,1.61.71,2.42,2.42,0,0,0,2.17-1,6.27,6.27,0,0,0,.67-3.32v-6.17H862v13.11Z"/><path class="cls-11" d="M871.22,375a7.59,7.59,0,0,0,2.25-.41v2.66a8,8,0,0,1-3.28.6,4.05,4.05,0,0,1-3.13-1.08,4.76,4.76,0,0,1-1-3.26V367.2h-1.71v-1.51l2-1.2,1-2.77h2.28v2.79h3.67v2.69h-3.67v6.31a1.39,1.39,0,0,0,.43,1.13A1.68,1.68,0,0,0,871.22,375Z"/><path class="cls-11" d="M881.64,375a7.59,7.59,0,0,0,2.25-.41v2.66a8,8,0,0,1-3.28.6,4,4,0,0,1-3.13-1.08,4.76,4.76,0,0,1-1-3.26V367.2h-1.71v-1.51l2-1.2,1-2.77h2.29v2.79h3.67v2.69h-3.67v6.31a1.39,1.39,0,0,0,.43,1.13A1.68,1.68,0,0,0,881.64,375Z"/><path class="cls-11" d="M898.44,371a7,7,0,0,1-1.69,5,6.09,6.09,0,0,1-4.7,1.81,6.57,6.57,0,0,1-3.32-.83,5.54,5.54,0,0,1-2.22-2.37,8,8,0,0,1-.77-3.61,7,7,0,0,1,1.67-5,6.15,6.15,0,0,1,4.71-1.78,6.58,6.58,0,0,1,3.33.82,5.48,5.48,0,0,1,2.22,2.35A8,8,0,0,1,898.44,371Zm-9.06,0A5.53,5.53,0,0,0,890,374a2.65,2.65,0,0,0,4.14,0,5.55,5.55,0,0,0,.63-2.95,5.43,5.43,0,0,0-.64-2.92,2.68,2.68,0,0,0-4.13,0A5.31,5.31,0,0,0,889.38,371Z"/><path class="cls-11" d="M913.49,377.62h-3.58V370a3.63,3.63,0,0,0-.5-2.12,1.82,1.82,0,0,0-1.61-.71,2.39,2.39,0,0,0-2.16,1,6.16,6.16,0,0,0-.67,3.32v6.17h-3.58V364.51h2.73l.49,1.68h.19a3.86,3.86,0,0,1,1.65-1.44,5.7,5.7,0,0,1,2.39-.48,4.57,4.57,0,0,1,3.46,1.23,5,5,0,0,1,1.19,3.57Z"/><path class="cls-11" d="M591.42,397.07a4.24,4.24,0,0,1,3.63,1.81,8.32,8.32,0,0,1,1.31,5,8.2,8.2,0,0,1-1.35,5,4.73,4.73,0,0,1-7.31.1h-.24l-.6,1.45h-2.73V392.18h3.57v4.24c0,.54-.05,1.41-.14,2.59h.14A4.16,4.16,0,0,1,591.42,397.07Zm-1.15,2.86a2.27,2.27,0,0,0-1.94.81,4.76,4.76,0,0,0-.63,2.69v.39a5.5,5.5,0,0,0,.63,3,2.23,2.23,0,0,0,2,.91,2,2,0,0,0,1.76-1,5.51,5.51,0,0,0,.65-2.95,5.18,5.18,0,0,0-.66-2.9A2.06,2.06,0,0,0,590.27,399.93Z"/><path class="cls-11" d="M605.24,410.65a6.73,6.73,0,0,1-4.94-1.75,6.59,6.59,0,0,1-1.78-4.94,7.29,7.29,0,0,1,1.64-5.09,5.88,5.88,0,0,1,4.56-1.8,5.74,5.74,0,0,1,4.32,1.58,6,6,0,0,1,1.55,4.37v1.73h-8.45a3.45,3.45,0,0,0,.9,2.38,3.17,3.17,0,0,0,2.37.86,9.55,9.55,0,0,0,2.24-.25,11,11,0,0,0,2.2-.78v2.76a8,8,0,0,1-2,.7A12.9,12.9,0,0,1,605.24,410.65Zm-.5-11a2.26,2.26,0,0,0-1.78.72,3.32,3.32,0,0,0-.74,2.05h5a3,3,0,0,0-.7-2.05A2.32,2.32,0,0,0,604.74,399.61Z"/><path class="cls-11" d="M617.07,410.42h-3.58V392.18h3.58Z"/><path class="cls-11" d="M632.72,403.84a7,7,0,0,1-1.68,5,6.1,6.1,0,0,1-4.7,1.81,6.58,6.58,0,0,1-3.33-.83,5.54,5.54,0,0,1-2.22-2.37,8,8,0,0,1-.77-3.61,7,7,0,0,1,1.68-5,6.12,6.12,0,0,1,4.71-1.78,6.58,6.58,0,0,1,3.33.82,5.41,5.41,0,0,1,2.21,2.35A7.89,7.89,0,0,1,632.72,403.84Zm-9.05,0a5.54,5.54,0,0,0,.63,2.94,2.28,2.28,0,0,0,2.08,1,2.25,2.25,0,0,0,2.06-1,5.55,5.55,0,0,0,.63-3,5.44,5.44,0,0,0-.63-2.92,2.3,2.3,0,0,0-2.08-1,2.27,2.27,0,0,0-2.06,1A5.41,5.41,0,0,0,623.67,403.84Z"/><path class="cls-11" d="M646.45,410.42l-1-4.59L644.08,400H644l-2.39,10.38h-3.85L634,397.31h3.56l1.51,5.8c.24,1,.49,2.48.74,4.31h.07a24.18,24.18,0,0,1,.41-2.83l.19-1,1.61-6.28h3.94l1.54,6.28c0,.18.08.43.14.77s.13.69.2,1.07.12.75.17,1.11.08.66.09.88h.07c.07-.57.19-1.34.37-2.32s.31-1.64.39-2l1.57-5.8h3.5l-3.77,13.11Z"/><path class="cls-11" d="M668,407.8a7.48,7.48,0,0,0,2.25-.41v2.66a8,8,0,0,1-3.28.6,4,4,0,0,1-3.12-1.08,4.76,4.76,0,0,1-1-3.26V400h-1.71v-1.51l2-1.2,1-2.77h2.29v2.79h3.66V400h-3.66v6.31a1.41,1.41,0,0,0,.42,1.13A1.72,1.72,0,0,0,668,407.8Z"/><path class="cls-11" d="M684.78,403.84a7,7,0,0,1-1.69,5,6.09,6.09,0,0,1-4.7,1.81,6.61,6.61,0,0,1-3.33-.83,5.51,5.51,0,0,1-2.21-2.37,7.9,7.9,0,0,1-.77-3.61,7,7,0,0,1,1.67-5,6.15,6.15,0,0,1,4.71-1.78,6.58,6.58,0,0,1,3.33.82,5.48,5.48,0,0,1,2.22,2.35A8,8,0,0,1,684.78,403.84Zm-9.06,0a5.44,5.44,0,0,0,.64,2.94,2.65,2.65,0,0,0,4.14,0,5.66,5.66,0,0,0,.62-3,5.44,5.44,0,0,0-.63-2.92,2.69,2.69,0,0,0-4.14,0A5.41,5.41,0,0,0,675.72,403.84Z"/><path class="cls-11" d="M699.29,410.65q-6.12,0-6.12-6.72a7.17,7.17,0,0,1,1.66-5.1,6.26,6.26,0,0,1,4.77-1.76,9,9,0,0,1,4.08.89l-1,2.76c-.57-.22-1.09-.41-1.57-.55a4.93,4.93,0,0,0-1.46-.22q-2.79,0-2.79,4t2.79,3.84a6.44,6.44,0,0,0,1.91-.27,6.65,6.65,0,0,0,1.76-.86v3.06a5.93,5.93,0,0,1-1.75.76A9.86,9.86,0,0,1,699.29,410.65Z"/><path class="cls-11" d="M713.62,397.07a5.89,5.89,0,0,1,1.21.1l-.27,3.35a4.54,4.54,0,0,0-1.06-.11,3.75,3.75,0,0,0-2.66.88,3.15,3.15,0,0,0-1,2.46v6.67h-3.57V397.31H709l.53,2.21h.18a4.84,4.84,0,0,1,1.64-1.78A4.07,4.07,0,0,1,713.62,397.07Z"/><path class="cls-11" d="M723.13,410.65a6.75,6.75,0,0,1-4.94-1.75,6.59,6.59,0,0,1-1.78-4.94,7.29,7.29,0,0,1,1.64-5.09,5.88,5.88,0,0,1,4.56-1.8,5.74,5.74,0,0,1,4.32,1.58,6,6,0,0,1,1.55,4.37v1.73H720a3.45,3.45,0,0,0,.9,2.38,3.17,3.17,0,0,0,2.37.86,9.55,9.55,0,0,0,2.24-.25,11,11,0,0,0,2.2-.78v2.76a7.9,7.9,0,0,1-2,.7A12.83,12.83,0,0,1,723.13,410.65Zm-.5-11a2.26,2.26,0,0,0-1.78.72,3.32,3.32,0,0,0-.74,2.05h5a3,3,0,0,0-.69-2.05A2.36,2.36,0,0,0,722.63,399.61Z"/><path class="cls-11" d="M739.71,410.42l-.7-1.79h-.09a5.21,5.21,0,0,1-1.86,1.58,6,6,0,0,1-2.49.44,4,4,0,0,1-3-1.08,4.15,4.15,0,0,1-1.08-3.07,3.45,3.45,0,0,1,1.46-3.08,8.45,8.45,0,0,1,4.4-1.09l2.27-.07v-.58a1.78,1.78,0,0,0-2-2,9.31,9.31,0,0,0-3.69.95l-1.18-2.41a10.62,10.62,0,0,1,5-1.19,6.25,6.25,0,0,1,4,1.15,4.24,4.24,0,0,1,1.41,3.49v8.74Zm-1.06-6.08-1.38.05A4.46,4.46,0,0,0,735,405a1.77,1.77,0,0,0-.76,1.57c0,1,.57,1.52,1.73,1.52a2.75,2.75,0,0,0,2-.72,2.54,2.54,0,0,0,.74-1.9Z"/><path class="cls-11" d="M751.4,407.8a7.48,7.48,0,0,0,2.25-.41v2.66a8,8,0,0,1-3.28.6,4,4,0,0,1-3.12-1.08,4.71,4.71,0,0,1-1-3.26V400h-1.71v-1.51l2-1.2,1-2.77h2.28v2.79h3.67V400h-3.67v6.31a1.39,1.39,0,0,0,.43,1.13A1.68,1.68,0,0,0,751.4,407.8Z"/><path class="cls-11" d="M762.23,410.65a6.75,6.75,0,0,1-5-1.75A6.63,6.63,0,0,1,755.5,404a7.25,7.25,0,0,1,1.65-5.09,5.85,5.85,0,0,1,4.55-1.8,5.78,5.78,0,0,1,4.33,1.58,6,6,0,0,1,1.54,4.37v1.73h-8.45a3.41,3.41,0,0,0,.91,2.38,3.17,3.17,0,0,0,2.36.86,9.49,9.49,0,0,0,2.24-.25,10.8,10.8,0,0,0,2.2-.78v2.76a7.9,7.9,0,0,1-2,.7A12.79,12.79,0,0,1,762.23,410.65Zm-.51-11a2.28,2.28,0,0,0-1.78.72,3.31,3.31,0,0,0-.73,2.05h5a3,3,0,0,0-.69-2.05A2.36,2.36,0,0,0,761.72,399.61Z"/><path class="cls-11" d="M785,410.42l-.69-1.79h-.09a5.21,5.21,0,0,1-1.86,1.58,6.07,6.07,0,0,1-2.49.44,4,4,0,0,1-3-1.08,4.15,4.15,0,0,1-1.08-3.07,3.46,3.46,0,0,1,1.45-3.08,8.49,8.49,0,0,1,4.41-1.09l2.27-.07v-.58a1.78,1.78,0,0,0-2-2,9.31,9.31,0,0,0-3.69.95l-1.19-2.41a10.66,10.66,0,0,1,5-1.19,6.25,6.25,0,0,1,4,1.15,4.24,4.24,0,0,1,1.41,3.49v8.74Zm-1-6.08-1.38.05a4.43,4.43,0,0,0-2.32.56,1.78,1.78,0,0,0-.77,1.57c0,1,.58,1.52,1.74,1.52a2.71,2.71,0,0,0,2-.72,2.51,2.51,0,0,0,.75-1.9Z"/><path class="cls-13" d="M806.65,405.35a4.74,4.74,0,0,1-1.73,3.88,7.24,7.24,0,0,1-4.7,1.42,7.32,7.32,0,0,1-4.17-1.06v-3.21a8.64,8.64,0,0,0,4.19,1.27,3.63,3.63,0,0,0,2-.5,1.55,1.55,0,0,0,.74-1.36,2.44,2.44,0,0,0-.15-.89,2.61,2.61,0,0,0-.46-.71A12.14,12.14,0,0,0,801,403a7.75,7.75,0,0,1-2.27-2.3,4.79,4.79,0,0,1-.66-2.45,5,5,0,0,1,.73-2.7,4.85,4.85,0,0,1,2.07-1.85,6.87,6.87,0,0,1,3.08-.66,9.45,9.45,0,0,1,4.66,1.16l-1.28,2.73a7.92,7.92,0,0,0-3.38-.87,2.38,2.38,0,0,0-1.59.53,1.74,1.74,0,0,0-.62,1.39,2.07,2.07,0,0,0,.39,1.25,6.85,6.85,0,0,0,1.73,1.41,7,7,0,0,1,2.12,2.07A4.86,4.86,0,0,1,806.65,405.35Z"/><path class="cls-13" d="M814.52,410.65a5.25,5.25,0,0,1-3.82-1.32,5,5,0,0,1-1.36-3.74,10.12,10.12,0,0,1,1-4.43,7.27,7.27,0,0,1,2.62-3,6.85,6.85,0,0,1,3.74-1.05,5,5,0,0,1,3.24.95,3.23,3.23,0,0,1,1.16,2.62,3.76,3.76,0,0,1-2,3.38,10.78,10.78,0,0,1-5.59,1.19h-.6l0,.25v.23a2.12,2.12,0,0,0,2.33,2.3,7.06,7.06,0,0,0,1.85-.22,11.92,11.92,0,0,0,2-.79v2.66A10.13,10.13,0,0,1,814.52,410.65Zm1.92-11a2.7,2.7,0,0,0-2,.94,4.49,4.49,0,0,0-1.19,2.28h.53a5.84,5.84,0,0,0,2.83-.57,1.71,1.71,0,0,0,1-1.54Q817.67,399.61,816.44,399.61Z"/><path class="cls-13" d="M827.58,410.65a4.88,4.88,0,0,1-3.61-1.26,4.82,4.82,0,0,1-1.26-3.56,11.34,11.34,0,0,1,.87-4.51,7.14,7.14,0,0,1,2.46-3.15,6.17,6.17,0,0,1,3.61-1.1,8.59,8.59,0,0,1,3.84.84l-1.08,2.68c-.42-.17-.83-.33-1.24-.46a4.26,4.26,0,0,0-1.38-.2,2.55,2.55,0,0,0-1.8.75,5,5,0,0,0-1.26,2.05,8.58,8.58,0,0,0-.45,2.81,2.37,2.37,0,0,0,.54,1.69,1.92,1.92,0,0,0,1.48.57,4.92,4.92,0,0,0,1.65-.27,16,16,0,0,0,1.57-.69v2.88A8.39,8.39,0,0,1,827.58,410.65Z"/><path class="cls-13" d="M839.27,407.8a5.66,5.66,0,0,0,1.9-.41V410a7.26,7.26,0,0,1-3.12.62,3.85,3.85,0,0,1-2.59-.74,2.9,2.9,0,0,1-.82-2.28,7.43,7.43,0,0,1,.14-1.32l1.35-6.31h-1.78l.34-1.73,2.29-1,1.55-2.77h2.27l-.57,2.79h3.31L843,400h-3.31l-1.34,6.31a3,3,0,0,0-.07.62C838.24,407.51,838.58,407.8,839.27,407.8Z"/><path class="cls-13" d="M847.05,410.42h-3.53l2.78-13.11h3.53Zm-.19-16.18a2,2,0,0,1,.56-1.54,2.19,2.19,0,0,1,1.57-.52,2,2,0,0,1,1.3.36,1.28,1.28,0,0,1,.45,1,2.15,2.15,0,0,1-.52,1.51,2,2,0,0,1-1.59.58Q846.86,395.68,846.86,394.24Z"/><path class="cls-13" d="M863.2,402.26a10.93,10.93,0,0,1-.83,4.38,6.59,6.59,0,0,1-2.38,3,6.49,6.49,0,0,1-3.71,1,4.91,4.91,0,0,1-3.65-1.38,5,5,0,0,1-1.36-3.66,11.18,11.18,0,0,1,.84-4.45,6.65,6.65,0,0,1,2.42-3,6.37,6.37,0,0,1,3.7-1.07,4.82,4.82,0,0,1,3.63,1.38A5.25,5.25,0,0,1,863.2,402.26Zm-3.55,0q0-2.31-1.68-2.31a2.15,2.15,0,0,0-1.58.72,5.19,5.19,0,0,0-1.13,2.09,9.13,9.13,0,0,0-.44,2.85c0,1.45.58,2.17,1.76,2.17a2.17,2.17,0,0,0,1.58-.72,4.81,4.81,0,0,0,1.09-2A9.18,9.18,0,0,0,859.65,402.26Z"/><path class="cls-13" d="M875.7,410.42h-3.53l1.61-7.66a6.46,6.46,0,0,0,.19-1.39c0-1-.43-1.44-1.27-1.44a2.43,2.43,0,0,0-2,1.33,11.22,11.22,0,0,0-1.38,3.73l-1.15,5.43h-3.52l2.77-13.11h2.7l-.25,2.43H870q1.71-2.67,4.16-2.67a3.17,3.17,0,0,1,2.5,1,4,4,0,0,1,.89,2.79,10.37,10.37,0,0,1-.27,2.11Z"/><rect class="cls-14" x="660.29" y="446.46" width="151.42" height="40.91" rx="4.05" ry="4.05"/><rect class="cls-15" x="660.29" y="443.05" width="151.42" height="42.05" rx="1.96" ry="1.96"/><path class="cls-3" d="M684.15,459.61a2.69,2.69,0,0,0-2.21,1,4.26,4.26,0,0,0-.81,2.76,4.34,4.34,0,0,0,.77,2.78,2.75,2.75,0,0,0,2.25.94,5.58,5.58,0,0,0,1.23-.13c.4-.08.81-.19,1.24-.32V468a7.44,7.44,0,0,1-2.67.45,4.3,4.3,0,0,1-3.37-1.33,5.6,5.6,0,0,1-1.17-3.81,6.16,6.16,0,0,1,.57-2.73,4.09,4.09,0,0,1,1.65-1.79,5,5,0,0,1,2.53-.62,6.26,6.26,0,0,1,2.83.64l-.58,1.36a9.15,9.15,0,0,0-1.07-.42A3.94,3.94,0,0,0,684.15,459.61Z"/><path class="cls-3" d="M692.44,460.65a3.44,3.44,0,0,1,.79.07l-.15,1.5a2.82,2.82,0,0,0-.71-.09,2.06,2.06,0,0,0-1.57.63,2.32,2.32,0,0,0-.59,1.64v4H688.6v-7.56h1.26l.21,1.33h.08a3,3,0,0,1,1-1.07A2.32,2.32,0,0,1,692.44,460.65Z"/><path class="cls-3" d="M697.94,468.49a3.67,3.67,0,0,1-2.76-1,3.93,3.93,0,0,1-1-2.84,4.27,4.27,0,0,1,.92-2.91,3.16,3.16,0,0,1,2.53-1.06,3.11,3.11,0,0,1,2.37.91,3.47,3.47,0,0,1,.87,2.5v.87h-5a2.48,2.48,0,0,0,.59,1.69,2.06,2.06,0,0,0,1.58.59,6.1,6.1,0,0,0,1.25-.12,7.26,7.26,0,0,0,1.24-.42V468a4.91,4.91,0,0,1-1.19.4A7.06,7.06,0,0,1,697.94,468.49Zm-.3-6.62a1.6,1.6,0,0,0-1.22.48,2.33,2.33,0,0,0-.55,1.42h3.43a2.1,2.1,0,0,0-.45-1.42A1.56,1.56,0,0,0,697.64,461.87Z"/><path class="cls-3" d="M707.43,468.35l-.32-1.05h-.05a3.18,3.18,0,0,1-1.1.94,3.61,3.61,0,0,1-1.42.25,2.39,2.39,0,0,1-1.75-.61,2.26,2.26,0,0,1-.62-1.7,2,2,0,0,1,.87-1.76,4.91,4.91,0,0,1,2.64-.65l1.31,0v-.41a1.51,1.51,0,0,0-.34-1.08,1.38,1.38,0,0,0-1-.36,3.68,3.68,0,0,0-1.11.17,8.5,8.5,0,0,0-1,.41l-.52-1.15a5.28,5.28,0,0,1,1.35-.49,6.34,6.34,0,0,1,1.38-.17,3.28,3.28,0,0,1,2.18.63,2.47,2.47,0,0,1,.73,2v5.09Zm-2.39-1.1a2,2,0,0,0,1.41-.48,1.79,1.79,0,0,0,.52-1.37v-.66l-1,0a3.33,3.33,0,0,0-1.65.38,1.16,1.16,0,0,0-.51,1,1,1,0,0,0,.3.78A1.31,1.31,0,0,0,705,467.25Z"/><path class="cls-3" d="M713.64,467.19a4.09,4.09,0,0,0,1.18-.19v1.21a3.63,3.63,0,0,1-.69.2,4.94,4.94,0,0,1-.87.08c-1.52,0-2.29-.81-2.29-2.41V462h-1v-.71l1.11-.58.55-1.6h1v1.68h2.15V462h-2.15v4.05a1.11,1.11,0,0,0,.29.86A1.08,1.08,0,0,0,713.64,467.19Z"/><path class="cls-3" d="M719.63,468.49a3.67,3.67,0,0,1-2.76-1,3.93,3.93,0,0,1-1-2.84,4.27,4.27,0,0,1,.92-2.91,3.16,3.16,0,0,1,2.53-1.06,3.11,3.11,0,0,1,2.37.91,3.47,3.47,0,0,1,.87,2.5v.87h-5a2.48,2.48,0,0,0,.59,1.69,2.06,2.06,0,0,0,1.58.59,6.1,6.1,0,0,0,1.25-.12,7.26,7.26,0,0,0,1.24-.42V468a4.91,4.91,0,0,1-1.19.4A7.06,7.06,0,0,1,719.63,468.49Zm-.3-6.62a1.61,1.61,0,0,0-1.22.48,2.33,2.33,0,0,0-.55,1.42H721a2.1,2.1,0,0,0-.45-1.42A1.56,1.56,0,0,0,719.33,461.87Z"/><path class="cls-3" d="M734,465.63a2.54,2.54,0,0,1-1,2.1,4.23,4.23,0,0,1-2.66.76,6.41,6.41,0,0,1-2.78-.53v-1.55a7,7,0,0,0,1.46.51,6.29,6.29,0,0,0,1.43.18,2.31,2.31,0,0,0,1.43-.36,1.21,1.21,0,0,0,.46-1,1.25,1.25,0,0,0-.42-.95,6.54,6.54,0,0,0-1.75-.92,4.74,4.74,0,0,1-1.93-1.26,2.72,2.72,0,0,1-.56-1.71,2.4,2.4,0,0,1,.89-2,3.68,3.68,0,0,1,2.39-.72,7,7,0,0,1,2.85.63l-.52,1.33a6.31,6.31,0,0,0-2.38-.56,1.83,1.83,0,0,0-1.2.35,1.14,1.14,0,0,0-.41.91,1.41,1.41,0,0,0,.16.67,1.63,1.63,0,0,0,.55.52,9.65,9.65,0,0,0,1.35.65,7.39,7.39,0,0,1,1.61.85,2.62,2.62,0,0,1,.75.9A2.66,2.66,0,0,1,734,465.63Z"/><path class="cls-3" d="M739,468.49a3.67,3.67,0,0,1-2.76-1,3.93,3.93,0,0,1-1-2.84,4.27,4.27,0,0,1,.92-2.91,3.16,3.16,0,0,1,2.53-1.06,3.11,3.11,0,0,1,2.37.91,3.47,3.47,0,0,1,.87,2.5v.87h-5a2.44,2.44,0,0,0,.6,1.69,2,2,0,0,0,1.57.59,6.1,6.1,0,0,0,1.25-.12,7.26,7.26,0,0,0,1.24-.42V468a4.91,4.91,0,0,1-1.19.4A7.06,7.06,0,0,1,739,468.49Zm-.3-6.62a1.61,1.61,0,0,0-1.22.48,2.33,2.33,0,0,0-.55,1.42h3.43a2.1,2.1,0,0,0-.45-1.42A1.55,1.55,0,0,0,738.73,461.87Z"/><path class="cls-3" d="M746.84,468.49a3.32,3.32,0,0,1-2.61-1,5.05,5.05,0,0,1,0-5.8,3.43,3.43,0,0,1,2.69-1,5,5,0,0,1,2.15.45l-.48,1.29A4.76,4.76,0,0,0,747,462c-1.31,0-2,.87-2,2.61a3.11,3.11,0,0,0,.49,1.91,1.7,1.7,0,0,0,1.43.64,4.09,4.09,0,0,0,2-.54V468a3.48,3.48,0,0,1-.92.37A5.74,5.74,0,0,1,746.84,468.49Z"/><path class="cls-3" d="M753.54,467.19a4,4,0,0,0,1.18-.19v1.21a3.63,3.63,0,0,1-.69.2,4.94,4.94,0,0,1-.87.08c-1.52,0-2.28-.81-2.28-2.41V462h-1v-.71l1.11-.58.55-1.6h1v1.68h2.15V462h-2.15v4.05a1.14,1.14,0,0,0,.29.86A1.08,1.08,0,0,0,753.54,467.19Z"/><path class="cls-3" d="M756.13,458.79a.9.9,0,0,1,.24-.67,1.08,1.08,0,0,1,1.33,0,.9.9,0,0,1,.24.67.86.86,0,0,1-.24.64,1,1,0,0,1-1.33,0A.86.86,0,0,1,756.13,458.79Zm1.7,9.56h-1.6v-7.56h1.6Z"/><path class="cls-3" d="M766.84,464.55a4.17,4.17,0,0,1-1,2.9,3.43,3.43,0,0,1-2.65,1,3.62,3.62,0,0,1-1.87-.48,3.17,3.17,0,0,1-1.25-1.38,4.68,4.68,0,0,1-.44-2.08,4.1,4.1,0,0,1,.94-2.87,3.46,3.46,0,0,1,2.66-1,3.31,3.31,0,0,1,2.6,1.06A4.05,4.05,0,0,1,766.84,464.55Zm-5.51,0c0,1.75.65,2.62,1.94,2.62s1.91-.87,1.91-2.62-.64-2.59-1.92-2.59a1.66,1.66,0,0,0-1.47.67A3.45,3.45,0,0,0,761.33,464.55Z"/><path class="cls-3" d="M775.33,468.35h-1.61V463.7a2.09,2.09,0,0,0-.35-1.31,1.4,1.4,0,0,0-1.12-.43,1.76,1.76,0,0,0-1.49.61,3.34,3.34,0,0,0-.47,2v3.77h-1.61v-7.56h1.26l.23,1h.08a2.2,2.2,0,0,1,1-.83,3.18,3.18,0,0,1,1.39-.3c1.82,0,2.72.92,2.72,2.77Z"/><path class="cls-3" d="M793.82,462.49A1.13,1.13,0,0,0,793,462h-.57v-.57a1.15,1.15,0,0,0-1.15-1.14H786.8l-1-1h-3.46a1.15,1.15,0,0,0-1.15,1.14v7.26a1.15,1.15,0,0,0,1.15,1.14h9a1,1,0,0,0,1-.7l1.56-4.71A1.07,1.07,0,0,0,793.82,462.49Zm-11.11,5.14,1.48-4.42h8.59l-1.49,4.42Zm8.51-5.59h-7.1a1,1,0,0,0-1,.71l-.76,2.26v-4.55h2.94l1,1h4.92Z"/></svg>