<?xml version="1.0" encoding="utf-8"?>
<!-- Generator: Adobe Illustrator 22.0.1, SVG Export Plug-In . SVG Version: 6.00 Build 0)  -->
<svg version="1.1" id="Layer_1" xmlns="http://www.w3.org/2000/svg" xmlns:xlink="http://www.w3.org/1999/xlink" x="0px" y="0px"
	 viewBox="0 0 23.4 31.2" style="enable-background:new 0 0 23.4 31.2;" xml:space="preserve">
<title>fnf_home_icon</title>
<g>
	<path d="M20.4,14.2v-10c0-0.7-0.6-1.3-1.3-1.3h-5.8c-0.6,0-1.3,0.3-1.7,0.7l-7.9,7.8C3.2,11.9,3,12.5,3,13.2v11.3
		c-0.1,0.7,0.5,1.2,1.2,1.2h6.4c0.8,0,1.5,0.7,1.5,1.5l0,0c0,0.8-0.7,1.5-1.5,1.5H2.4C1,28.7,0,27.6,0,26.3V11.9
		c0-0.7,0.3-1.3,0.7-1.8l9.7-9.4C10.9,0.3,11.5,0,12.1,0H21c1.4,0,2.4,1.1,2.4,2.4v11.9c0,0.8-0.7,1.5-1.5,1.5l0,0
		C21.1,15.7,20.4,15.1,20.4,14.2z"/>
	<path d="M11.8,14H2.3v-3h7.6c0.6,0,1.1-0.5,1.1-1.1V2.5h3v9.3C14,13,13.1,14,11.8,14z"/>
</g>
<g>
	<path d="M20.6,23.3l-3.2-3.6c-0.1-0.1-0.3-0.1-0.5,0l-3.2,3.6c-0.5,0.6-1.5,0.7-2.1,0.2l0,0C11,23,10.9,22,11.4,21.4l4.6-5.2
		c0.6-0.7,1.7-0.7,2.3,0l4.6,5.2c0.5,0.6,0.5,1.6-0.2,2.1l0,0C22.1,24,21.1,23.9,20.6,23.3z"/>
	<path d="M17.1,31.1L17.1,31.1c-0.8,0-1.5-0.7-1.5-1.5v-9.4c0-0.8,0.7-1.5,1.5-1.5l0,0c0.8,0,1.5,0.7,1.5,1.5v9.4
		C18.6,30.4,18,31.1,17.1,31.1z"/>
</g>
</svg>
