<?xml version="1.0" encoding="utf-8"?>
<!-- Generator: Adobe Illustrator 22.0.1, SVG Export Plug-In . SVG Version: 6.00 Build 0)  -->
<svg version="1.1" id="Layer_1" xmlns="http://www.w3.org/2000/svg" xmlns:xlink="http://www.w3.org/1999/xlink" x="0px" y="0px"
	 viewBox="0 0 34.4 24.7" style="enable-background:new 0 0 34.4 24.7;" xml:space="preserve">
<title>fnf_home_icon</title>
<path d="M12.1,12.3c-0.4-0.2-0.8-0.4-1.2-0.6h-0.2V8.5c0.1,0,0.1,0,0.2,0.1c0.2,0.1,0.4,0.2,0.6,0.3C11.6,9,11.7,9,11.9,9.1
	c0.3,0.2,0.6,0.2,0.9,0s0.3-0.5,0.2-0.8c-0.1-0.2-0.2-0.4-0.4-0.5c-0.5-0.4-1.1-0.6-1.9-0.7V6.7c0-0.4-0.3-0.8-0.8-0.8l0,0H9.8
	C9.4,6,9.2,6.3,9.2,6.7v0.4H9C7.6,7.4,6.6,8.5,6.6,9.9c0,1,0.3,1.7,1.1,2.2c0.4,0.4,1,0.7,1.5,0.8v3.4c-0.4-0.1-0.7-0.2-1-0.5
	l-0.1-0.1c-0.1-0.1-0.2-0.1-0.2-0.2c-0.3-0.2-0.7-0.2-1,0s-0.4,0.6-0.2,0.9C6.8,16.6,7,16.8,7.3,17c0.6,0.4,1.2,0.7,2.1,0.8V18
	c0,0.4,0.3,0.8,0.8,0.8s0.5-0.3,0.5-0.8v-0.2h0.1c0.3-0.1,0.7-0.1,1-0.3c1.1-0.5,1.6-1.4,1.7-2.6C13.5,13.8,13,12.9,12.1,12.3z
	 M11.6,14.2c0.2,0.4,0.2,0.9,0,1.3s-0.5,0.7-0.9,0.8v-2.9C11.1,13.6,11.4,13.8,11.6,14.2z M9.2,8.6v2.6c-0.1,0-0.2-0.1-0.3-0.1
	c-0.4-0.2-0.6-0.4-0.6-0.7C8.1,9.5,8.4,8.9,9.2,8.6z"/>
<path d="M33.5,24.7H0.9c-0.5,0-0.9-0.4-0.9-0.9V0.9C0,0.4,0.4,0,0.9,0h32.6c0.5,0,0.9,0.4,0.9,0.9v22.8C34.5,24.2,34,24.7,33.5,24.7
	z M3.4,21.7H31c0.3,0,0.5-0.2,0.5-0.5V3.4c0-0.3-0.2-0.5-0.5-0.5H3.4c-0.3,0-0.5,0.2-0.5,0.5v17.8C3,21.4,3.2,21.7,3.4,21.7z"/>
<path d="M26.3,13.2h-8.5c-0.6,0-1-0.4-1-1l0,0c0-0.6,0.4-1,1-1h8.5c0.6,0,1,0.4,1,1l0,0C27.3,12.8,26.8,13.2,26.3,13.2z"/>
<path d="M26.3,8.2h-8.5c-0.6,0-1-0.4-1-1l0,0c0-0.6,0.4-1,1-1h8.5c0.6,0,1,0.4,1,1l0,0C27.3,7.8,26.8,8.2,26.3,8.2z"/>
<path d="M26.3,18.3h-8.5c-0.6,0-1-0.4-1-1l0,0c0-0.6,0.4-1,1-1h8.5c0.6,0,1,0.4,1,1l0,0C27.3,17.8,26.8,18.3,26.3,18.3z"/>
</svg>
