<?xml version="1.0" encoding="utf-8"?>
<!-- Generator: Adobe Illustrator 22.0.1, SVG Export Plug-In . SVG Version: 6.00 Build 0)  -->
<svg version="1.1" id="Layer_1" xmlns="http://www.w3.org/2000/svg" xmlns:xlink="http://www.w3.org/1999/xlink" x="0px" y="0px"
	 viewBox="0 0 35.3 22.6" style="enable-background:new 0 0 35.3 22.6;" xml:space="preserve">
<title>fnf_home_icon</title>
<path d="M19,13.7H1.6c-0.8,0-1.5-0.7-1.5-1.5l0,0c0-0.8,0.7-1.5,1.5-1.5H19c0.8,0,1.5,0.7,1.5,1.5l0,0C20.5,13,19.9,13.7,19,13.7z"
	/>
<path d="M19,13.7H1.6c-0.8,0-1.5-0.7-1.5-1.5l0,0c0-0.8,0.7-1.5,1.5-1.5H19c0.8,0,1.5,0.7,1.5,1.5l0,0C20.5,13,19.9,13.7,19,13.7z"
	/>
<path d="M30.1-0.2"/>
<path d="M29.3,1.2V1c0-0.7-0.6-1.1-1.2-1c-1.5,0.2-2.5,0.8-3.1,1.4c-0.1,0.1-0.3,0.1-0.4,0c-0.7-0.6-1.7-1.2-3.1-1.4
	c-0.7-0.1-1.3,0.4-1.3,1v0.1c0,0.5,0.4,1,0.9,1c1.3,0.2,2,0.8,2.3,1.3c0.1,0.2,0.2,0.4,0.2,0.6c0,1.5,0,12.9,0,14.5
	c0,0.2-0.1,0.5-0.2,0.6c-0.4,0.4-1.1,1.1-2.3,1.3c-0.5,0.1-0.9,0.5-0.9,1v0.1c0,0.7,0.6,1.1,1.2,1c1.5-0.2,2.5-0.8,3.1-1.4
	c0.1-0.1,0.3-0.1,0.4,0c0.7,0.6,1.7,1.2,3.1,1.4c0.6,0.1,1.2-0.4,1.2-1v-0.1c0-0.5-0.4-1-0.9-1c-1.3-0.2-2-0.8-2.3-1.3
	c-0.1-0.2-0.2-0.4-0.2-0.6c0-1.5,0-12.9,0-14.5c0-0.2,0.1-0.5,0.2-0.6c0.4-0.4,1.1-1.1,2.4-1.3C29,2.1,29.3,1.7,29.3,1.2z"/>
<path d="M33.8,13.7h-3.5c-0.8,0-1.5-0.7-1.5-1.5l0,0c0-0.8,0.7-1.5,1.5-1.5h3.5c0.8,0,1.5,0.7,1.5,1.5l0,0
	C35.3,13,34.7,13.7,33.8,13.7z"/>
<path d="M15,21.3H1.6c-0.8,0-1.5-0.7-1.5-1.5l0,0c0-0.8,0.7-1.5,1.5-1.5H15c0.8,0,1.5,0.7,1.5,1.5l0,0C16.5,20.7,15.9,21.3,15,21.3z
	"/>
<path d="M33.8,21.3h-0.5c-0.8,0-1.5-0.7-1.5-1.5l0,0c0-0.8,0.7-1.5,1.5-1.5h0.5c0.8,0,1.5,0.7,1.5,1.5l0,0
	C35.3,20.7,34.7,21.3,33.8,21.3z"/>
<path d="M17,6H1.6C0.8,6,0.1,5.3,0.1,4.5l0,0C0.1,3.7,0.8,3,1.6,3H17c0.8,0,1.5,0.7,1.5,1.5l0,0C18.5,5.3,17.9,6,17,6z"/>
<path d="M33.8,6h-2.5c-0.8,0-1.5-0.7-1.5-1.5l0,0c0-0.8,0.7-1.5,1.5-1.5h2.5c0.8,0,1.5,0.7,1.5,1.5l0,0C35.3,5.3,34.7,6,33.8,6z"/>
</svg>
