<svg id="Layer_1" data-name="Layer 1" xmlns="http://www.w3.org/2000/svg" viewBox="0 0 7.12 16"><defs><style>.cls-1{fill:#32507a;}</style></defs><title>sort</title><path class="cls-1" d="M6.85,11.21a.79.79,0,0,0-1.08.1L4.29,13.12V3l1.44,1.9a.74.74,0,0,0,.51.31h.09A.8.8,0,0,0,6.8,5a.74.74,0,0,0,.31-.51A.81.81,0,0,0,7,3.93L4.21.31A.79.79,0,0,0,3.62,0,.8.8,0,0,0,3,.27L.17,3.71a.79.79,0,0,0,.1,1.08.78.78,0,0,0,1.07-.1L2.83,2.88V13.05l-1.44-1.9A.75.75,0,0,0,.32,11,.68.68,0,0,0,0,11.5a.76.76,0,0,0,.15.57l2.75,3.62A.77.77,0,0,0,3.5,16h0a.74.74,0,0,0,.57-.27L7,12.28A.78.78,0,0,0,6.85,11.21Z"/></svg>