<?xml version="1.0" encoding="utf-8"?>
<!-- Generator: Adobe Illustrator 21.1.0, SVG Export Plug-In . SVG Version: 6.00 Build 0)  -->
<svg version="1.1" id="Layer_1" xmlns="http://www.w3.org/2000/svg" xmlns:xlink="http://www.w3.org/1999/xlink" x="0px" y="0px"
	 viewBox="0 0 42.4 40.3" style="enable-background:new 0 0 42.4 40.3;" xml:space="preserve">
<title>fnf_home_icon</title>
<path d="M18.9,29.5L18.9,29.5c-0.7-0.5-0.8-1.4-0.3-2.1l12.1-15.9c0.2-0.3,0.1-0.6-0.1-0.8l-2.4-1.8c-0.3-0.2-0.6-0.1-0.8,0.1
	L15.3,24.9c-0.5,0.7-1.4,0.8-2.1,0.3l0,0c-0.7-0.5-0.8-1.4-0.3-2.1L26.2,5.6c0.5-0.7,1.4-0.8,2.1-0.3l5.7,4.4
	c0.7,0.5,0.8,1.4,0.3,2.1L21,29.3C20.5,29.9,19.6,30,18.9,29.5z"/>
<path d="M9.3,34.1l0.7-5.7c0.1-0.8,0.9-1.4,1.7-1.3l0,0c0.8,0.1,1.4,0.9,1.3,1.7l-0.3,2.5c0,0.3,0.2,0.5,0.5,0.4l2.3-1
	c0.8-0.3,1.6,0,2,0.8l0,0c0.3,0.8,0,1.6-0.8,2l-5.3,2.2C10.3,36.1,9.2,35.2,9.3,34.1z"/>
<path d="M26.1,14.7l-0.7-0.5c-0.3-0.2-0.3-0.6-0.1-0.8l0.8-1c0.2-0.3,0.6-0.3,0.8-0.1l0.7,0.5c0.3,0.2,0.3,0.6,0.1,0.8l-0.8,1
	C26.8,14.8,26.4,14.9,26.1,14.7z"/>
</svg>
