<?xml version="1.0" encoding="utf-8"?>
<!-- Generator: Adobe Illustrator 21.1.0, SVG Export Plug-In . SVG Version: 6.00 Build 0)  -->
<svg version="1.1" id="Layer_1" xmlns="http://www.w3.org/2000/svg" xmlns:xlink="http://www.w3.org/1999/xlink" x="0px" y="0px"
	 viewBox="0 0 42.4 40.3" style="enable-background:new 0 0 42.4 40.3;" xml:space="preserve">
<title>fnf_home_icon</title>
<path d="M26.9,10.9"/>
<path d="M37.1,9.9"/>
<path d="M20.2,33.5L12,23.6c-0.5-0.6-0.4-1.6,0.2-2.1l0,0c0.6-0.5,1.6-0.4,2.1,0.2l6.5,7.9c0.2,0.3,0.6,0.2,0.8,0l6.4-8.4
	c0.5-0.7,1.4-0.8,2.1-0.3l0,0c0.7,0.5,0.8,1.4,0.3,2.1l-7.9,10.4C21.9,34.2,20.8,34.2,20.2,33.5z"/>
<path d="M20.2,19.5L12,9.6C11.5,9,11.6,8,12.2,7.5l0,0c0.6-0.5,1.6-0.4,2.1,0.2l6.5,7.9c0.2,0.3,0.6,0.2,0.8,0L28,7.2
	c0.5-0.7,1.4-0.8,2.1-0.3l0,0c0.7,0.5,0.8,1.4,0.3,2.1l-7.9,10.4C21.9,20.2,20.8,20.2,20.2,19.5z"/>
</svg>
