<?xml version="1.0" encoding="utf-8"?>
<!-- Generator: Adobe Illustrator 21.1.0, SVG Export Plug-In . SVG Version: 6.00 Build 0)  -->
<svg version="1.1" id="Layer_1" xmlns="http://www.w3.org/2000/svg" xmlns:xlink="http://www.w3.org/1999/xlink" x="0px" y="0px"
	 viewBox="0 0 42.4 40.3" style="enable-background:new 0 0 42.4 40.3;" xml:space="preserve">
<title>fnf_home_icon</title>
<g>
	<path d="M32,37H10.4c-0.8,0-1.5-0.7-1.5-1.5V15.7c0-0.8,0.7-1.5,1.5-1.5h0c0.8,0,1.5,0.7,1.5,1.5v16.8c0,0.8,0.7,1.5,1.5,1.5H29
		c0.8,0,1.5-0.7,1.5-1.5V15.7c0-0.8,0.7-1.5,1.5-1.5l0,0c0.8,0,1.5,0.7,1.5,1.5v19.8C33.5,36.3,32.9,37,32,37z"/>
	<path d="M34.6,11.9H7.8c-0.8,0-1.5-0.7-1.5-1.5v0c0-0.8,0.7-1.5,1.5-1.5h26.8c0.8,0,1.5,0.7,1.5,1.5v0
		C36.1,11.2,35.4,11.9,34.6,11.9z"/>
	<path d="M27.4,10.4L27.4,10.4c-0.8,0-1.5-0.7-1.5-1.5V6.7c0-0.5-0.4-0.9-0.9-0.9h-7.5c-0.5,0-0.9,0.4-0.9,0.9v2.2
		c0,0.8-0.7,1.5-1.5,1.5h0c-0.8,0-1.5-0.7-1.5-1.5V4.3c0-0.8,0.7-1.5,1.5-1.5h12.3c0.8,0,1.5,0.7,1.5,1.5v4.7
		C28.9,9.7,28.2,10.4,27.4,10.4z"/>
	<path d="M17,30.9L17,30.9c-0.8,0-1.5-0.7-1.5-1.5V19.1c0-0.8,0.7-1.5,1.5-1.5h0c0.8,0,1.5,0.7,1.5,1.5v10.3
		C18.5,30.2,17.9,30.9,17,30.9z"/>
	<path d="M25.4,30.9L25.4,30.9c-0.8,0-1.5-0.7-1.5-1.5V19.1c0-0.8,0.7-1.5,1.5-1.5h0c0.8,0,1.5,0.7,1.5,1.5v10.3
		C26.9,30.2,26.2,30.9,25.4,30.9z"/>
</g>
</svg>
