<?xml version="1.0" encoding="utf-8"?>
<!-- Generator: Adobe Illustrator 21.1.0, SVG Export Plug-In . SVG Version: 6.00 Build 0)  -->
<svg version="1.1" id="Layer_1" xmlns="http://www.w3.org/2000/svg" xmlns:xlink="http://www.w3.org/1999/xlink" x="0px" y="0px"
	 viewBox="0 0 42.4 40.3" style="enable-background:new 0 0 42.4 40.3;" xml:space="preserve">
<title>fnf_home_icon</title>
<path d="M6,31.7c0,2,1.6,3.7,3.7,3.7h23.2c2,0,3.6-1.7,3.6-3.7v-11c0-0.8-0.7-1.5-1.5-1.5h-0.3c-0.7,0.2-1.2,0.8-1.2,1.5v8.8
	c0,1.6-1.3,2.8-2.8,2.8H11.9C10.3,32.3,9,31,9,29.5v-8.8c0-0.8-0.6-1.5-1.5-1.6c0,0,0,0,0,0c-0.8,0-1.5,0.6-1.5,1.5V31.7z"/>
<path d="M35.8,16.7H7c-1.4,0-2.6-1.2-2.6-2.6v-5c0-1.4,1.2-2.6,2.6-2.6h28.8c1.4,0,2.6,1.2,2.6,2.6v5C38.4,15.5,37.3,16.7,35.8,16.7
	z M8.2,13.7h26.4c0.4,0,0.8-0.4,0.8-0.8v-2.5c0-0.4-0.4-0.8-0.8-0.8H8.2c-0.4,0-0.8,0.4-0.8,0.8v2.5C7.4,13.3,7.8,13.7,8.2,13.7z"/>
<path d="M24.2,24.1h-6.1c-0.5,0-0.9-0.5-0.9-1v-1.3c0-0.6,0.4-1,0.9-1h6.1c0.5,0,0.9,0.5,0.9,1v1.3C25.2,23.7,24.8,24.1,24.2,24.1z"
	/>
</svg>
