<?xml version="1.0" encoding="utf-8"?>
<!-- Generator: Adobe Illustrator 22.1.0, SVG Export Plug-In . SVG Version: 6.00 Build 0)  -->
<svg version="1.1" id="Layer_1" xmlns="http://www.w3.org/2000/svg" xmlns:xlink="http://www.w3.org/1999/xlink" x="0px" y="0px"
	 viewBox="0 0 36.5 30.7" style="enable-background:new 0 0 36.5 30.7;" xml:space="preserve">
<title>fnf_home_icon</title>
<path d="M35,0H1.5C0.7,0,0,0.7,0,1.5v27.8c0,0.8,0.7,1.4,1.5,1.4h16h11.3h6.8c0.5,0,1-0.5,0.9-1V1.5C36.5,0.7,35.8,0,35,0z
	 M33.6,26.7c0,0.6-0.5,1-1,1h-3.8H17.5H3.4c-0.2,0-0.4-0.3-0.5-0.5V3.9c0-0.6,0.5-1,1-1h28.7c0.6,0,1,0.5,1,1V26.7z"/>
<path d="M29.3,16.8H6.6c-0.6,0-1.1-0.5-1.1-1.1v-4.4c0-0.6,0.5-1.1,1.1-1.1h22.7c0.6,0,1.1,0.5,1.1,1.1v4.4
	C30.4,16.3,29.9,16.8,29.3,16.8z M7.9,14.8h20.2c0.2,0,0.3-0.1,0.3-0.3v-1.9c0-0.2-0.1-0.3-0.3-0.3H7.9c-0.2,0-0.3,0.1-0.3,0.3v1.9
	C7.5,14.7,7.7,14.8,7.9,14.8z"/>
<path d="M13.8,24.7H6.6c-0.6,0-1.1-0.5-1.1-1.1v-3.4c0-0.6,0.5-1.1,1.1-1.1h7.3c0.6,0,1.1,0.5,1.1,1.1v3.4
	C14.9,24.2,14.4,24.7,13.8,24.7z M7.9,22.7h4.7c0.2,0,0.3-0.1,0.3-0.3v-0.8c0-0.2-0.1-0.3-0.3-0.3H7.9c-0.2,0-0.3,0.1-0.3,0.3v0.8
	C7.5,22.5,7.7,22.7,7.9,22.7z"/>
<path d="M29.5,7.9h-23c-0.6,0-1-0.4-1-1l0,0c0-0.6,0.4-1,1-1h23c0.6,0,1,0.4,1,1l0,0C30.5,7.5,30,7.9,29.5,7.9z"/>
</svg>
