<?xml version="1.0" encoding="utf-8"?>
<!-- Generator: Adobe Illustrator 22.0.1, SVG Export Plug-In . SVG Version: 6.00 Build 0)  -->
<svg version="1.1" id="Layer_1" xmlns="http://www.w3.org/2000/svg" xmlns:xlink="http://www.w3.org/1999/xlink" x="0px" y="0px"
	 viewBox="0 0 93.2 21.5" style="enable-background:new 0 0 93.2 21.5;" xml:space="preserve">
<title>fnf_home_icon</title>
<g>
	<path d="M20,21.3H1.8c-0.8,0-1.5-0.7-1.5-1.5V1.5C0.3,0.7,1,0,1.8,0h7.6c0.8,0,1.5,0.7,1.5,1.5l0,0c0,0.8-0.7,1.5-1.5,1.5H3.8
		C3.5,3,3.3,3.2,3.3,3.5v14.3c0,0.3,0.2,0.5,0.5,0.5h14.3c0.3,0,0.5-0.2,0.5-0.5v-5.6c0-0.8,0.7-1.5,1.5-1.5l0,0
		c0.8,0,1.5,0.7,1.5,1.5v7.6C21.5,20.6,20.8,21.3,20,21.3z"/>
	<path d="M9.8,14.5l-2.8-3c-0.6-0.6-0.5-1.6,0.1-2.1l0,0c0.6-0.6,1.6-0.5,2.1,0.1l1.2,1.3c0.2,0.2,0.5,0.2,0.7,0l8.4-10.3
		C20-0.1,21-0.2,21.6,0.3l0,0c0.6,0.5,0.7,1.5,0.2,2.1l-9.7,12.1C11.5,15.1,10.4,15.2,9.8,14.5z"/>
</g>
<g>
	<path d="M43.1,21.3c-5.8,0-10.6-4.8-10.6-10.6S37.2,0,43.1,0s10.6,4.8,10.6,10.6S48.9,21.3,43.1,21.3z M43.1,3
		c-4.2,0-7.6,3.4-7.6,7.6s3.4,7.6,7.6,7.6s7.6-3.4,7.6-7.6S47.3,3,43.1,3z"/>
	<circle cx="43.1" cy="10.6" r="2.8"/>
</g>
<g>
	<path d="M91.1,21.3H66.4c-1,0-1.8-0.8-1.8-1.8V1.8c0-1,0.8-1.8,1.8-1.8h24.7c1,0,1.8,0.8,1.8,1.8v17.7
		C92.9,20.5,92.1,21.3,91.1,21.3z M68.3,18.3h20.8c0.4,0,0.7-0.3,0.7-0.7V3.7c0-0.4-0.3-0.7-0.7-0.7H68.3c-0.4,0-0.7,0.3-0.7,0.7
		v13.8C67.7,17.9,68,18.3,68.3,18.3z"/>
	<path d="M79.4,13.4c-0.4,0.4-1,0.4-1.3,0L75.8,11l-1.5-1.6c-0.5-0.6-0.1-1.5,0.7-1.5h3.8h3.8c0.8,0,1.2,0.9,0.7,1.5L81.8,11
		L79.4,13.4z"/>
</g>
</svg>
