<?xml version="1.0" encoding="utf-8"?>
<!-- Generator: Adobe Illustrator 22.1.0, SVG Export Plug-In . SVG Version: 6.00 Build 0)  -->
<svg version="1.1" id="Layer_1" xmlns="http://www.w3.org/2000/svg" xmlns:xlink="http://www.w3.org/1999/xlink" x="0px" y="0px"
	 viewBox="0 0 36.4 41.6" style="enable-background:new 0 0 36.4 41.6;" xml:space="preserve">
<title>fnf_home_icon</title>
<path d="M17.5,30.6h-16C0.7,30.6,0,30,0,29.2L0,1.5C0,0.7,0.7,0,1.5,0h33.5c0.8,0,1.5,0.7,1.5,1.5l0,28.2c0.1,0.5-0.4,1-0.9,1h-6.8
	c-0.8,0-1.5-0.7-1.5-1.5v0c0-0.8,0.7-1.5,1.5-1.5h3.8c0.5,0,1-0.4,1-1l0-22.8c0-0.5-0.4-1-1-1H3.9c-0.5,0-1,0.4-1,1l0,23.3
	c0.1,0.2,0.3,0.5,0.5,0.5h14.1c0.8,0,1.5,0.7,1.5,1.5v0C19,30,18.3,30.6,17.5,30.6z"/>
<path d="M29.3,16.8H6.6c-0.6,0-1.1-0.5-1.1-1.1v-4.4c0-0.6,0.5-1.1,1.1-1.1h22.7c0.6,0,1.1,0.5,1.1,1.1v4.4
	C30.4,16.3,29.9,16.8,29.3,16.8z M7.9,14.8h20.2c0.2,0,0.3-0.1,0.3-0.3v-1.9c0-0.2-0.1-0.3-0.3-0.3H7.9c-0.2,0-0.3,0.1-0.3,0.3v1.9
	C7.5,14.7,7.7,14.8,7.9,14.8z"/>
<path d="M13.8,24.7H6.6c-0.6,0-1.1-0.5-1.1-1.1v-3.4c0-0.6,0.5-1.1,1.1-1.1h7.3c0.6,0,1.1,0.5,1.1,1.1v3.4
	C14.9,24.2,14.4,24.7,13.8,24.7z M7.9,22.7h4.7c0.2,0,0.3-0.1,0.3-0.3v-0.8c0-0.2-0.1-0.3-0.3-0.3H7.9c-0.2,0-0.3,0.1-0.3,0.3v0.8
	C7.5,22.5,7.7,22.7,7.9,22.7z"/>
<path d="M29.5,7.9h-23c-0.6,0-1-0.4-1-1v0c0-0.6,0.4-1,1-1h23c0.6,0,1,0.4,1,1v0C30.5,7.5,30,7.9,29.5,7.9z"/>
<path d="M28.2,33.6c-0.7-0.5-1.5-0.3-1.9,0.3l-3.2,4.3l-3.3-4c-0.5-0.5-1.3-0.7-1.9-0.2c-0.5,0.5-0.7,1.3-0.2,1.9l4.4,5.3l0,0
	c0.3,0.3,0.6,0.5,1,0.5h0c0.4,0,0.8-0.2,1-0.5l4.3-5.6C28.9,34.8,28.8,34,28.2,33.6z"/>
<path d="M23.1,38.1L23.1,38.1c-0.8,0-1.4-0.6-1.4-1.4V22.9c0-0.8,0.6-1.4,1.4-1.4h0c0.8,0,1.4,0.6,1.4,1.4v13.7
	C24.5,37.5,23.8,38.1,23.1,38.1z"/>
</svg>
