<?xml version="1.0" encoding="utf-8"?>
<!-- Generator: Adobe Illustrator 22.1.0, SVG Export Plug-In . SVG Version: 6.00 Build 0)  -->
<svg version="1.1" id="Layer_1" xmlns="http://www.w3.org/2000/svg" xmlns:xlink="http://www.w3.org/1999/xlink" x="0px" y="0px"
	 viewBox="0 0 25.7 25.7" style="enable-background:new 0 0 25.7 25.7;" xml:space="preserve">
<title>fnf_home_icon</title>
<path d="M20.5,1.8"/>
<path d="M21.7,13.8c-0.9,0-1.6,0.8-1.6,1.6v6.1c0,0.5-0.4,0.9-0.9,0.9h-15c-0.5,0-0.9-0.4-0.9-0.9v-15c0-0.5,0.4-0.9,0.9-0.9h6
	c0.9,0,1.6-0.8,1.6-1.6s-0.8-1.6-1.6-1.6H2c-1.1,0-2,0.9-2,2v19.2c0,1.1,0.9,2,2,2h19.3c1.1,0,2-0.9,2-2v-8.2
	C23.3,14.6,22.6,13.8,21.7,13.8z"/>
<path d="M25.3,0.4c-0.3-0.3-0.7-0.4-1.1-0.4l-7,0.9c-0.9,0.2-1.4,0.8-1.3,1.6c0.1,0.8,0.8,1.3,1.6,1.1l3-0.4l-9.5,9.5
	c-0.6,0.6-0.6,1.4,0,2c0.6,0.6,1.4,0.6,2,0L22.7,5l-0.3,3c0,0.7,0.4,1.4,1.2,1.5c0.7,0,1.4-0.4,1.5-1.2l0.6-6.9
	C25.7,1,25.6,0.7,25.3,0.4z M22.8,2.9C22.8,2.9,22.8,2.9,22.8,2.9L22.8,2.9L22.8,2.9C22.8,3,22.8,2.9,22.8,2.9z"/>
</svg>
