<?xml version="1.0" encoding="utf-8"?>
<!-- Generator: Adobe Illustrator 22.1.0, SVG Export Plug-In . SVG Version: 6.00 Build 0)  -->
<svg version="1.1" id="Layer_1" xmlns="http://www.w3.org/2000/svg" xmlns:xlink="http://www.w3.org/1999/xlink" x="0px" y="0px"
	 viewBox="0 0 42.5 52.4" style="enable-background:new 0 0 42.5 52.4;" xml:space="preserve">
<g id="Welcome">
	<g>
		<g id="form_icon">
			<path d="M32.7,11.4H15.6c-0.8,0-1.5-0.7-1.5-1.5s0.7-1.5,1.5-1.5h17.1c0.8,0,1.5,0.7,1.5,1.5S33.5,11.4,32.7,11.4z"/>
			<circle cx="9.8" cy="9.9" r="2.2"/>
			<path d="M32.7,34.8H15.6c-0.8,0-1.5-0.7-1.5-1.5s0.7-1.5,1.5-1.5h17.1c0.8,0,1.5,0.7,1.5,1.5S33.5,34.8,32.7,34.8z"/>
			<path d="M32.7,44H15.6c-0.8,0-1.5-0.7-1.5-1.5s0.7-1.5,1.5-1.5h17.1c0.8,0,1.5,0.7,1.5,1.5S33.5,44,32.7,44z"/>
			<g>
				<circle cx="9.8" cy="33.3" r="2.2"/>
				<circle cx="9.8" cy="42.5" r="2.2"/>
			</g>
			<g id="Rectangle-14">
				<path d="M9.5,26.9c-1.2,0-2.2-0.9-2.4-2.1v-0.2v-5.9c0.2-1.3,1.3-2.2,2.5-2.1h23c1.3-0.1,2.4,0.8,2.5,2v0.2v6
					c-0.2,1.3-1.3,2.1-2.5,2h-23C9.6,26.9,9.6,26.9,9.5,26.9z M10.6,23.9h21.2c0.3,0,0.5-0.2,0.5-0.5V20c0-0.3-0.2-0.5-0.5-0.5H10.6
					c-0.3,0-0.5,0.2-0.5,0.5v3.4C10.1,23.7,10.3,23.9,10.6,23.9z"/>
			</g>
		</g>
	</g>
</g>
<g id="Rectangle-11">
	<path d="M39.2,52.4H3.3c-1.8,0-3.3-1.5-3.3-3.3V3.3C0,1.5,1.5,0,3.3,0h35.9c1.8,0,3.3,1.5,3.3,3.3v45.9
		C42.5,50.9,41,52.4,39.2,52.4z M4.5,3C3.7,3,3,3.7,3,4.5v43.4c0,0.8,0.7,1.5,1.5,1.5H38c0.8,0,1.5-0.7,1.5-1.5V4.5
		C39.5,3.7,38.8,3,38,3H4.5z"/>
</g>
</svg>
