<?xml version="1.0" encoding="utf-8"?>
<!-- Generator: Adobe Illustrator 22.0.1, SVG Export Plug-In . SVG Version: 6.00 Build 0)  -->
<svg version="1.1" id="Layer_1" xmlns="http://www.w3.org/2000/svg" xmlns:xlink="http://www.w3.org/1999/xlink" x="0px" y="0px"
	 viewBox="0 0 21.8 21.3" style="enable-background:new 0 0 21.8 21.3;" xml:space="preserve">
<title>fnf_home_icon</title>
<g>
	<path d="M19.7,21.3H1.5c-0.8,0-1.5-0.7-1.5-1.5V1.5C0,0.7,0.7,0,1.5,0h7.6c0.8,0,1.5,0.7,1.5,1.5l0,0C10.6,2.3,9.9,3,9.1,3H3.5
		C3.2,3,3,3.2,3,3.5v14.3c0,0.3,0.2,0.5,0.5,0.5h14.3c0.3,0,0.5-0.2,0.5-0.5v-5.6c0-0.8,0.7-1.5,1.5-1.5l0,0c0.8,0,1.5,0.7,1.5,1.5
		v7.6C21.2,20.6,20.5,21.3,19.7,21.3z"/>
	<path d="M9.5,14.5l-2.8-3c-0.6-0.6-0.5-1.6,0.1-2.1l0,0c0.6-0.6,1.6-0.5,2.1,0.1l1.2,1.3c0.2,0.2,0.5,0.2,0.7,0l8.4-10.3
		c0.5-0.6,1.5-0.7,2.1-0.2l0,0c0.6,0.5,0.7,1.5,0.2,2.1l-9.7,12.1C11.2,15.1,10.1,15.2,9.5,14.5z"/>
</g>
</svg>
