<?xml version="1.0" encoding="utf-8"?>
<!-- Generator: Adobe Illustrator 22.1.0, SVG Export Plug-In . SVG Version: 6.00 Build 0)  -->
<svg version="1.1" id="Layer_1" xmlns="http://www.w3.org/2000/svg" xmlns:xlink="http://www.w3.org/1999/xlink" x="0px" y="0px"
	 viewBox="0 0 30.4 29.1" style="enable-background:new 0 0 30.4 29.1;" xml:space="preserve">
<title>fnf_home_icon</title>
<path d="M27.8,29.1H2.6C1.2,29.1,0,28,0,26.5V2.6C0,1.2,1.2,0,2.6,0h20.1c0.7,0,1.5,0.3,2,0.9l5,5.6c0.4,0.5,0.7,1.1,0.7,1.7v18.3
	C30.4,28,29.2,29.1,27.8,29.1z M3.8,26.1h22.7c0.5,0,0.8-0.4,0.8-0.8V8.7c0-0.2-0.1-0.4-0.2-0.5l-4.4-4.9C22.7,3.1,22.4,3,22.2,3
	H3.8C3.4,3,3,3.4,3,3.8v21.5C3,25.8,3.4,26.1,3.8,26.1z"/>
<path d="M24.4,27.6h-3v-8.2H9v8.2H6v-8.9c0-1.3,1-2.3,2.3-2.3h13.8c1.3,0,2.3,1,2.3,2.3V27.6z"/>
<path d="M14.3,12.1h-6C7,12.1,6,11.1,6,9.8V1.9h3v7.2h5.3V12.1z"/>
<path d="M18.8,12.1h-8.3c-0.3,0-0.5-0.2-0.5-0.5V0.9c0-0.3,0.2-0.5,0.5-0.5h9.7c0.3,0,0.5,0.2,0.5,0.5v9.4
	C20.7,11.3,19.8,12.1,18.8,12.1z M13.5,9.1h3.7c0.3,0,0.5-0.2,0.5-0.5V3.9c0-0.3-0.2-0.5-0.5-0.5h-3.7c-0.3,0-0.5,0.2-0.5,0.5v4.7
	C13,8.9,13.2,9.1,13.5,9.1z"/>
<rect x="7.5" y="1.9" width="4" height="7.9"/>
</svg>
