<?xml version="1.0" encoding="utf-8"?>
<!-- Generator: Adobe Illustrator 22.0.1, SVG Export Plug-In . SVG Version: 6.00 Build 0)  -->
<svg version="1.1" id="Layer_1" xmlns="http://www.w3.org/2000/svg" xmlns:xlink="http://www.w3.org/1999/xlink" x="0px" y="0px"
	 viewBox="0 0 20.4 24.5" style="enable-background:new 0 0 20.4 24.5;" xml:space="preserve">
<title>fnf_home_icon</title>
<g>
	<path d="M20.3,9.7c-0.3-3.7-2-6.5-5.2-8.4c-1.6-1-3.4-1.4-5.3-1.3C5.6,0.2,1.9,2.9,0.5,6.9C0,8.2-0.1,9.6,0,11.1
		c0.1,1.8,0.7,3.5,1.6,5.2C2.5,18,3.7,19.6,5.1,21c1.1,1.1,2.2,2.1,3.5,3c0.4,0.3,0.8,0.4,1.3,0.5H10c0.1,0,0.3,0,0.4,0
		c0.2,0,0.4-0.1,0.6-0.1c0.3-0.1,0.6-0.2,0.9-0.4c1.9-1.5,3.7-3.1,5.2-5c1.2-1.5,2.2-3.2,2.8-5C20.2,12.5,20.4,11.1,20.3,9.7z
		 M17.4,13.4c-0.5,1.5-1.3,2.8-2.3,4c-1.2,1.5-2.5,2.8-4,4c-0.4,0.3-0.9,0.5-1.4,0.4c-0.2,0-0.4-0.1-0.5-0.3
		c-1.6-1.2-3.1-2.6-4.3-4.3c-1-1.3-1.8-2.8-2.3-4.4c-0.3-1.1-0.5-2.2-0.3-3.3C2.5,7.4,3.4,5.6,5,4.2c1.1-1,2.4-1.6,3.9-1.8
		c0.4-0.1,0.8-0.1,1.2-0.1c3.7,0,6.9,2.6,7.7,6.3C18.2,10.3,18,11.9,17.4,13.4z"/>
	<path d="M10.1,6.1c-2.5,0-4.5,2-4.5,4.5s2,4.5,4.4,4.5c2.5,0,4.5-2,4.5-4.5C14.5,8.2,12.5,6.2,10.1,6.1z M10,12.8
		c-1.2,0-2.1-1-2.1-2.2s1-2.1,2.2-2.1s2.1,1,2.1,2.2C12.2,11.8,11.2,12.8,10,12.8z"/>
</g>
</svg>
